<svg id="Layer_1" data-name="Layer 1" xmlns="http://www.w3.org/2000/svg" viewBox="0 0 502.61 328.94"><defs><style>.cls-1{fill:#e5e5e5;}.cls-2{fill:#777575;}.cls-3{fill:#1e1c1b;}</style></defs><path class="cls-1" d="M263.05,270.83c.62-4.78.74-9.57,1.69-14.3,2.17-10.82,4.5-21.74,9.22-31.72.21-.45,1.34-1.12,1.19-1.6-.21-.71-2-.78-2.72-.9-1.79-.3-1.56-2.6-2.56-1a41,41,0,0,0-3.1,7.65c-1,4.07-1.6,8-2.56,12.08a149.51,149.51,0,0,0-2.86,17.25c-.37,2.8-.94,8.25-1.12,11.07-1.28,19.48-2,35.35-1.91,54.86,0,.78-.76,2.22-.61,3a.52.52,0,0,0,0,.11c0,1.13.05,2.33.07,3.48.06,3.1.13,6.2.19,9.3q.19,9.32.38,18.62c.21,10.21.42,20.42,1.37,30.58.79,8.38,3.27,17.28,4.63,25.58.42,2.59.69,5,2.9,6.35.43.27.11.41.6.3,1-.24,1.29-1.56,1.29-2.61,0-5.35-2-17.7-2.29-23-.71-14.08-3.2-22.59-3.58-37.58l-.16-6.36c-.19-7.38-1.86-30.82-2.06-34.35-.51-8.8.45-16.27.75-25.08C262,285.21,262.1,278.05,263.05,270.83Z" transform="translate(-3.79 -93.15)"/><path class="cls-1" d="M230.09,121.43c-3.32-5-9.79-7.3-15.31-5-5.88,2.4-6.76,10.52-5,16.61s6.25,10.53,5.75,16.86c-.35,4.51-3.71,10.47-2.31,14.77,1,3,4.56,5.09,4.39,8.24-.14,2.45-2.64,3.46-4.13,5.42a29.15,29.15,0,0,0-4.86,12.85c-.43,3.55.19,7.62,3,9.77,1.68,1.27,3.72,1.94,5.53,3,7.11,4.27,5.56,10.18,10,10.57,2,.17,2-1.95,3.62-3.07,8-5.57,19.62-8.14,27.1-1.9,2.48,2.08,2,4.13,6.51,7.2A98.74,98.74,0,0,0,276.21,223c12.44,6.11,18.36,9.82,27,5,1.59,6.17,2.76,7.64-1.45,18.7-.36.93.25.36.71,1.24a9,9,0,0,0,2.33,2.75c5.07,2.92,2.67,7.88,5.86,10,3,2,6.8-.93,10.35-1.51,4.87-.8,9,1,16.47,0,0,0,4,4.75,8.68,5.4s9.1-1.29,9.56-2.2c2.56-5.13,7-9.92,4.57-15-3.25-6.62-5.92-11.86-10.93-14.42-2.69-1.37-6-2.66-8.23-4.65s-5.7-4.92-4.29-7.59c4.71,4.35,9.56,8.79,15.5,11.22,4.18,1.71,9.36,4.13,13.69,3.39,2.95-.51,5.1-3.64,7.89-4.95,6.58-3.09,12.59-9,14.57-16.34a6.4,6.4,0,0,0,.32-3.45c-3.38-11.26-6.7-7.35-7.57-8.89-1.79-3.16,1.41,5.24,2.38-10.51a1.74,1.74,0,0,0-1.08-1.64,1.56,1.56,0,0,0-1.54.12c-5.35,4.8-4.48,2.26-6.1,4.14,3.14-5.27-1.14-10.67-3.51-15.76-.87-1.86-.79-4-1.89-5.78,7.32-6,8.75-7.68,8.74-8.59-.11-6.25-.3-9.55,2.13-13.85a7.19,7.19,0,0,0,0-7c-1.68-3.16-5.94-3.5-9.38-4.52s-5.38-4.91-10-5.24c-3.47-.24-6.76-.51-9.58,1.52.54-4.83.25-10.1-2.65-14s-9.16-5.55-12.76-2.28c-2.55-7.37-6.72-14.55-16.4-15.54-7.77-.79-9.5-4.25-22.87,1.44-2.87-11.15-15-13.18-22.69-7.93-2,1.35-3.62,3.16-5.59,4.53-5.44,3.79-13.16,4-17.58,8.94-3.59,4-.7,10.85-3.1,15.67-3,6-4.4,16-7.42,11.35C236.29,130.58,232.34,124.79,230.09,121.43Z" transform="translate(-3.79 -93.15)"/><path class="cls-1" d="M187.1,231.42c1.11,1,1.51,2.65,2.46,3.8a18.58,18.58,0,0,1,4.34,9.36c.38,3.23.76,7.12,1.14,10.35.34,2.88-.54,5.49.35,8.25.83,2.6,3.08,5.11,3.89,7.72,1.12,3.66,1.09,6.46,1.54,10.26,1,8.24,3,15.71,8.54,21.92,6.25,7,17.88,13.63,26.6,17.18,2.59-8.05,1.72-17.38,2.69-25.78a73.77,73.77,0,0,0,.95-7.53c.15-6-3.14-9.86-4.12-14.39-1.57-7.24-.76-15.15-4.22-21.7a34.6,34.6,0,0,0-4.81-6.5c-2.57-2.93-6-6.91-9.17-9.15-2.45-1.72-4.41-1.94-7.11-3.23l-10.31-4.91c-3.16-1.51-6.32-3-9.5-4.5-2-.92-7.15-4.46-9.33-3.91C176.86,219.72,185.48,229.93,187.1,231.42Z" transform="translate(-3.79 -93.15)"/><path class="cls-2" d="M267.1,422c-10.49-2.05-13.77-138-3-182.76,0-.17,4.42-19.45,6.09-19s-7.55,19.86-9.37,48.41c-3.79,57.79-.44,152.06,7.21,152.06,2.72-.23-2.48-7.33-6.61-93C258,257.79,273,219.65,276.21,223c.34.37-22.12,38.84-12.25,126.86.71,6.39-.33-.86,2.16,31.9S273.09,423.17,267.1,422Z" transform="translate(-3.79 -93.15)"/><path class="cls-2" d="M258.87,344.85c-13.35-7.58-29.11-30.16-36.43-43.82-13.85-25.82-10.25-49.78-27.72-69.33-6-6.69-4.74-3.12-15.68-14.16-1.3-1.31.09-2,.72-1.2,23.87,25.9,20.7,7,34.4,59.26,6,23,27.22,57.73,45.39,68.08A.68.68,0,0,1,258.87,344.85Z" transform="translate(-3.79 -93.15)"/><path class="cls-2" d="M236.1,321.32c-2.15-.87,2.15-25.13,2.74-29.52,1.27-9.24-3.11-17.87-3.64-19.22-2.84-7.18,2.25-8.23-3.76-20.63a43.37,43.37,0,0,0-4.12-6.27c-15.11-16.82-10.56-9.74-25.2-16.71-26.28-12.54-23.7-12.15-23.21-12.78.91-1.18.59,1.27,23.64,11.49.93.43,35.32,9.5,33,40.18-.14,4.46,3.72,7.89,4.45,15.54.67,7.09-2.39,25.2-2.18,24C236,317.55,238.11,322.14,236.1,321.32Z" transform="translate(-3.79 -93.15)"/><path class="cls-2" d="M235,320.34c-8.23-5.23-32.3-8.52-34.91-40.78-1.08-13-4.2-10.66-5.33-18.49-.59-4-.64-18.86-3.34-23.2-1.38-2-8.64-8.62-12-18.48.18.58-1.5-3.69.4-2.6.24.14.11-.1,1.16,3,8.11,23.08,12.44,2,15.08,40.2v0a.22.22,0,0,1,0,.09v0c.56,6,3.79,7.39,5.1,15.36.56,3.38-.35,24,17.43,35.37,4.26,2.86,18.39,7.6,17.39,9.35A.69.69,0,0,1,235,320.34Z" transform="translate(-3.79 -93.15)"/><path class="cls-2" d="M327.66,150.11c-.14-.16,3-8.48,1-10.77-2.77-2.61-9.17.92-12.93-.05-.16,0-2.86-.92-2.26-.72-2.88-.77-5.36.52-5.43-.81-.07-1.5,5-.82,7-.11,5.86,2,18-6.3,15.15,8.48C329.85,147.94,328.85,151.51,327.66,150.11Z" transform="translate(-3.79 -93.15)"/><path class="cls-2" d="M311.63,138.07c-.6-1.29,7.32-4.8,7.48-4.86,3.48-1.38,8.15.1,6.42,4.59-.23.61-1.42,1-1.15-1.09a1.72,1.72,0,0,0-1.19-2.39C317.33,132.91,312.59,140.1,311.63,138.07Z" transform="translate(-3.79 -93.15)"/><path class="cls-2" d="M319.41,134.38c-.66,0-1.22-4.73-2.45-7a6.62,6.62,0,0,0-4.68-3.2c-3,0-3.62,3.5-4.53,4.86-1.54,2.34-4.32,3.12-5.54,4a.68.68,0,0,1-.73-1.14,13.07,13.07,0,0,1,2.53-1.34c4.37-2.54,2.57-4.72,5.52-6.74C316.92,118.74,321.92,134.6,319.41,134.38Z" transform="translate(-3.79 -93.15)"/><path class="cls-2" d="M340.22,139.64c-.74-.26,0-.31-1.28-3.89-1.07-2.63-3.48.29-5.33,1.32-.87.49-1.52.61-2.3,1-1.12.65-1.8,1.6-2.34.75-.73-1.13,2-1.76,6-4.41C341,130.49,342.29,140.37,340.22,139.64Z" transform="translate(-3.79 -93.15)"/><path class="cls-2" d="M337.13,134.41c-.39-.2-2.65-8.15-6.9-6.61-1.13.51-4.77,5.25-5.75,6.11a.68.68,0,0,1-.88-1c1-.88,4.47-5.51,5.78-6.18C335.13,123.77,340.14,135.89,337.13,134.41Z" transform="translate(-3.79 -93.15)"/><path class="cls-2" d="M330.94,126.49c-.4-.47-.88-3.68-4.74-6.08-8.65-4.82-9.49,3.94-12.89,3.25a.68.68,0,0,1-.22-1.23c6.18-3.43,3.24-5.52,11.27-4.17C331,119.34,333.39,129.4,330.94,126.49Z" transform="translate(-3.79 -93.15)"/><path class="cls-2" d="M306.65,126.54c-.86-2.79-8-4.25-10.17-3.48-1.24.51-1.93,1.72-2.52.8s2.34-2.52,4.13-2.43C311.9,122.16,307.65,131.31,306.65,126.54Z" transform="translate(-3.79 -93.15)"/><path class="cls-2" d="M310.44,124.16c-.8-.4.75-6.87-10.89-7.09-2.21,0-2.78,2.29-3.62,5.39-.48,1.69-1.77,1.17-1.33-.26,1.8-6.61,3.47-7.1,7.56-6.18,3.62.81,6.64.39,8.7,5.13C311.5,122.61,311.81,124.85,310.44,124.16Z" transform="translate(-3.79 -93.15)"/><path class="cls-2" d="M315.25,121.59c-.49-.25-.35-.68-.29-1,.15-1.41-3.35-6.76-6.64-7.34-7.44-1-10.21-7.31-16.54-3-1,.66-2.74-1.73,3.17-2.57,6.4-.93,6.58,3.18,12.49,4.11C315.1,112.84,318,123,315.25,121.59Z" transform="translate(-3.79 -93.15)"/><path class="cls-2" d="M324.33,111.42c-6.28-6-14.69-1-18.19-.59-.17,0-3,.32-2.85.26a.68.68,0,0,1-.41-1.29c.16-.06.69-.11.4-.07,9-1,9.12-3.27,14.06-2.41s8.48,2,9.16,6.21c.49,3,2.41,6.46,1.31,7.16C326,121.87,325.74,113,324.33,111.42Z" transform="translate(-3.79 -93.15)"/><path class="cls-2" d="M345.14,137.22c-1.32-.32.36-2.21.67-7.14.13-5.16-2.47-5.91-4.11-6.44s-8.87-1.14-10.42-.8c-.85.21-1.72.64-2-.16-.72-2.35,11.05-.85,12.47-.43C350.49,124.84,346.22,137.48,345.14,137.22Z" transform="translate(-3.79 -93.15)"/><path class="cls-2" d="M317.08,203.5c-8.22-1,23.29-2.56,27.93-12,4.79-10.39-.87-10.25-2.63-17.13s.09-9.2-1.76-14.39c-5.37-13.91-25.45-8.27-30.27-12.26-3.49-2.88-2-6.25-3.28-9.8-.63-1.52-5-2.51-9.07-8.51-.6-.89-1.55-3.38-4-4.19-7.12-2.11-15.81,6.12-16.22,3.62-.11-.67,4.17-2.52,4-2.44,15-7.94,16.38,2.46,20.86,6.35,5.64,4.87,5.16,1.85,6.34,7.7.31,1.56-.33,4.53,2.45,6.41,5.24,3.19,19.85-1.18,27.63,8.19,6.06,7.22,2.27,10.39,4.82,19.81,1.41,5.26,5.87,5.18,3.6,13.48-1.71,6.32-3.08,8.56-18,12.92C326.67,202.11,318.29,203.64,317.08,203.5Z" transform="translate(-3.79 -93.15)"/><path class="cls-2" d="M265.89,171.05c-5.4-12.31,11.44-38.3,11.54-43.05v0c.2-6.72-3.75-3.8-.93-15.51.44-1.81,3-8.94-1.52-9.14-32.21-.58-24,17.76-27.29,25.38-.21.49-5.23,10.55-5.94,10.28-1.72-.68,3.55-7.22,5.11-11.89,2.16-7.66-4.4-24.48,26.58-25.09,6.42-.13,6,4.2,4.56,10-2.4,9.93-.63,8.26.47,12.94,1.36,5.7-3.39,12.51-3.31,12.35-15.18,32.43-5.34,32.69-8.37,34A.69.69,0,0,1,265.89,171.05Z" transform="translate(-3.79 -93.15)"/><path class="cls-2" d="M295.28,119.8c-4.9-9.25-3.71-9.59-7.35-9-4.21.77-8,3.87-10.76,4.49a.68.68,0,0,1-.29-1.33c12.31-4.16,12.77-10.21,19.53,4.88C297,120.18,295.65,120.49,295.28,119.8Z" transform="translate(-3.79 -93.15)"/><path class="cls-2" d="M293.74,108.29c-3.1-5.74-6.57-11-12.33-6.29l-3,2.45a.68.68,0,0,1-1-.88C290.79,88.27,296.68,113.78,293.74,108.29Z" transform="translate(-3.79 -93.15)"/><path class="cls-2" d="M367.83,171.38c-1.77-.94,5.32-7.31,1.74-14.42-2.75-4.82-1.91-12-6.73-15.05-4-2.37-6.39.36-10.64-1.49-1.7-.72-3-2.88-4.83-3.21-1.87-.16-13,7.19-16.32,12.78-.55.88-5.93,1.24,9.68-10.91l0,0,0,0c9.82-7.43,8.23.42,14.42.64,3.47,0,6.9-1.16,9.76,2.31a17.12,17.12,0,0,1,3.88,7.51c1.38,8.9,5.83,10.37.46,20.58C368.94,170.7,368.63,171.8,367.83,171.38Z" transform="translate(-3.79 -93.15)"/><path class="cls-2" d="M337.3,218.08c-10.28-.26-6.73-1.83-6.36-1.75,3,.66,26.07.57,29.74-.29,7.2-2,19.22-13.27,20.84-15.78,2.26-3.78,1.1-6.12.91-7.89,0-.16-.07-3.78,0-3.61-1.5,0-2.76,4.25-8.09,7.51-6.75,4.16-9.61,8.23-10.46,7.2s7.59-7,8.95-7.87c7.89-4.83,9.8-14.12,11-3.29.69,5.49,1.69,7.77-9.2,16.47C364.39,216.94,364.92,218.8,337.3,218.08Z" transform="translate(-3.79 -93.15)"/><path class="cls-2" d="M373.66,196.38c-1.8-.4,1-.79,2-6.77.46-3.09-1.08-4.58-3-8.16-5.22-9.3-3.19-7.83-4.83-9.17,1.28,1.08-7-7.92-17-.73a42.45,42.45,0,0,0-5.62,5.36c-1.47,1.54-4.33,1.55,3.18-5.13,9.55-8.48,20.55-2.48,21.7,1.31a19,19,0,0,0,2.71,6.11C380.5,189.61,375.06,196.7,373.66,196.38Z" transform="translate(-3.79 -93.15)"/><path class="cls-2" d="M368.77,173.44c-1.14-.85,4.86-3.93,8.09-8.81,2.11-3.42-.52-5.86.54-9.45.86-2.85,6.69-8.65,1.67-13.11-2.56-2.16-6.53-1.61-15.26-7.33-4.09-2.56-18,1.64-18.19.21-.13-.91.92-.83,4.38-1.4,14.62-2.42,12.68-.4,18.87,2.58,8.66,4.09,9.75,2.93,12.3,6.22,4.25,5.53-3,10.57-2.57,15.74.33,4,1.67,5.06-2.4,9.52C375.48,168.4,370,174.33,368.77,173.44Z" transform="translate(-3.79 -93.15)"/><path class="cls-2" d="M351.15,133.62c-1.35-8.78,1.51-13.63-8.23-15.43-2.72-.51-3.11-1.06-5.52.36-7.69,6.22-7.3,3.09-6.58,2.68,8.46-4.9,5.77-5.91,14.52-4C355.8,119.51,352,139,351.15,133.62Z" transform="translate(-3.79 -93.15)"/><path class="cls-2" d="M335.67,118.71c-.74-1.82.07-.86-3.05-5.64-8.67-12.72-6.87-6.61-19.33-10.59-4-1.24-5-1.55-15.15,1.83-1,.23-1.5-1-.21-1.34a28.88,28.88,0,0,0,4.61-1.36c10.41-3.42,9.84.7,17.54,1,7.09.33,7.8,1.84,11.64,6.81C339.34,119.24,336.22,120,335.67,118.71Z" transform="translate(-3.79 -93.15)"/><path class="cls-2" d="M297.68,108.46c-1.36-1,.79-2.5-4.77-10.18-4.15-6-16.38-4-18.21-1.82-4.41,5.16-17.24,11.34-4,1.81,5.77-4.18,1.93-4.37,10.33-4.91,4.24-.29,9.56-1.14,13.41,4.81C298.56,104.19,299.69,110,297.68,108.46Z" transform="translate(-3.79 -93.15)"/><path class="cls-2" d="M280.45,225.59c-4.45-2.36-16.89-3.28-25.45-17.82-2.68-4.62-5.72-5.64-8.7-10.31a36.32,36.32,0,0,1-5.44-17.19c-.87-3-6.23-12.76-3.69-16,3.33-4.22,9,2,12.49,2,18.14,1.83,31.63,14.28,18.3,6.9-11.72-6.29-17.38-4-24.69-8.19-10.92-5.75-1.68,13-1.22,14.52,1,3.28.7,13.64,8.53,21.07,9.47,9,7.44,16.18,26.81,22.25,7.52,2.36,12.62,10.08,23,6,7.72-3,28-21.42,24.16-15.58-.1.16-12.82,10.28-17.3,13.42C294.84,235.45,288.9,230.3,280.45,225.59Z" transform="translate(-3.79 -93.15)"/><path class="cls-2" d="M284.45,197.84c-1.17-6.31,1.84-9.67-5.26-16.56.25.23-8.15-6.36-8-6.26a.68.68,0,1,1,1-.86c2.76,3.38,12.94,5.63,13.32,18.33a29.17,29.17,0,0,0,.21,5A.68.68,0,0,1,284.45,197.84Z" transform="translate(-3.79 -93.15)"/><path class="cls-2" d="M323.31,213.06c-.12-1.18-1.33-1-6.36-9.31-7.1-11.41-19.47-11.9-22-13-7.56-3.19-8,1.55-9.72,1.48-2.38-.1,1.83-4,5.8-4,1.81,0,19.57,3.35,26.77,14.26.1.17,7.54,11.4,6.71,9.6C325.28,213.87,323.43,214.08,323.31,213.06Z" transform="translate(-3.79 -93.15)"/><path class="cls-2" d="M344.72,265.14c-4.47-1.26-4.66-6.32-11.32-5-7.67,1.74-7.45-2.29-14.3,0-3.84,1.37-4.67,2.45-7.11,1.62-6.27-2.15-2.17-5.69-5.47-8.75-7.73-6.36-5.34-7.58-4.08-10.66,2-4.57,3-8.84.26-13.05-1.16-1.63.29-1.8.68-1.32,3.52,3.84,2.48,11.23-.07,15.62-3.61,6.17,6.15,6.59,6.12,13.06a4.15,4.15,0,0,0,5.16,3.83c12.77-4.68,11.57-.1,16.92-1.27-.29.06,4.35-1.34,6.79-.15,2.91,1.43,3.81,3.37,6.21,4.55,2.24,1,9.2-.64,10-1,2.06-1.07,2.5-3.65,2.8-4.4,1.8-6.1,6.53-1.93,1-14-6.49-12.71-18.62-12.59-25.23-23-5.46-8.16-10.75-6.91-10.06-8.67.53-1.32,6.73,1.6,11.25,8,3.25,4.79,9.41,8.57,8.58,8,12.18,7.65,5.08,1.24,14.07,11.58a14.9,14.9,0,0,1,2.59,3.36A30.46,30.46,0,0,1,361,247.9c3,8,.05,4.77-2.35,10.62-.41,1-.12,1.84-1.89,3.92C354.85,264.7,347,265.8,344.72,265.14Z" transform="translate(-3.79 -93.15)"/><path class="cls-2" d="M347.47,229.64c-12.22-5.24-14.84-15.71-11.83-11.94,10.14,12.7,25.42,18,30.2,17.21,3.54-.79,7-5.12,12.75-7.84,6.09-3,16.65-17.07,3.31-24.17-8.86-4.64,20.6,1.48,2.06,21.69-4,4.4-3.3,1.81-11.93,8.36C362.61,240.08,359,234.58,347.47,229.64Z" transform="translate(-3.79 -93.15)"/><path class="cls-2" d="M217.43,173.64c-.16-.15-4-7.37-4.56-9.61-1.59-6.39,1.71-9.75,2.18-13.43.76-8.56-14.43-22.44-1.23-34,11.05-9.7,21.84,13.65,32.88,28.17-.13-.17,7.25,7.29,7.64,14.32.08,1.46.26,2.44.21,2.17,1,6.9-1.66,7.44-1.7,6a23,23,0,0,0-.24-10.9c-1.37-4.63-5.5-8.61-8.72-13.24-13.26-19-19-30-27.16-26.81-15,6.9-.75,27.11-.38,31.2.59,6.61-2.22,7-2.5,12.56-.23,4.46,4.33,12.33,4.47,12.49A.68.68,0,0,1,217.43,173.64Z" transform="translate(-3.79 -93.15)"/><path class="cls-2" d="M225.52,215.49c-2.29-1.44-3.87-6.6-4.48-7.47-2-2.4-9.36-4.83-11.91-9.68-2.42-4.56,1.13-16.51,3.38-20.24,3.39-5.57,5.62-6.09,14.34-7.1,10.79-1.26,14.05,3,11.52,2.58-3.13-.54-6.44-3.3-18.23-.16-8.13,2.34-10,15.79-9.93,15.62-3.6,14.25,9.56,12.93,12.59,19.52,5.4,12.76,5.35,1.48,12.18-1.12,4.48-1.72,14.32-2.15,18.17-1.6,4.87.47,3.41,2.81,2.39,2.15-3-2-16-1-20.56.9a5.32,5.32,0,0,0-1.14.63C231,211.67,228.75,217.53,225.52,215.49Z" transform="translate(-3.79 -93.15)"/><path class="cls-3" d="M427.77,239.7q0-24.85,0-49.72c0-4.83.65-5.54,5.42-5.48,11.53.16,23.12-.24,34.58.78,15.47,1.37,32.63,13.17,37.36,30.54,4.11,15.08-1.94,30.71-15.41,40.77a58.11,58.11,0,0,1-7.23,4.37c-4.06,2.18-4.43,3.14-2,7,4.47,7.16,9,14.26,13.44,21.44,1,1.57,3.24,3.27.54,5.23-2,1.47-5.73.61-7.17-1.63q-5.7-8.87-11.34-17.78a59.6,59.6,0,0,0-4.57-7.06,6.83,6.83,0,0,0-4.44-2.37c-8.49-.12-17,.13-25.47.23-5.06.07-5.44.41-5.44,5.31,0,6.28,0,12.56,0,18.85,0,3.57-1.09,4.77-4.19,4.8s-4-1-4-4.88Q427.75,264.9,427.77,239.7Zm23.64-48.16c-4,0-8.05.14-12.07,0-2.58-.12-3.39.78-3.38,3.33q.12,30,0,60.07c0,3.09,1.25,4.3,4.27,4.27,7.07-.09,14.14.12,21.2-.11a38.8,38.8,0,0,0,20.89-6.42c14.36-9.75,17.67-20,15-34.43-2.2-12.09-11-19.68-22.46-24.09C467.29,191.18,459.35,191.43,451.41,191.54Z" transform="translate(-3.79 -93.15)"/><path class="cls-3" d="M399.18,213.74a38.72,38.72,0,0,0-9.65-21c-11.57-13-29.91-15.14-43.63-5.19-10.63,7.72-16.09,18.51-16.24,32.09v.18c.14,1.12.25,2.24.36,3.37a47.12,47.12,0,0,0,1.19,7.68,38.89,38.89,0,0,0,10.91,18,32.75,32.75,0,0,0,22.71,9.11,31.63,31.63,0,0,0,20.83-7.69C396.74,240.73,401.29,228.41,399.18,213.74ZM364.3,188.65h.64c10.94.34,18.83,5.88,24.12,16.94a32.42,32.42,0,0,1,2.62,19.12c-1.67,11.16-7,18.93-16.33,23.76s-20.68,2.74-28.41-5.12A31.24,31.24,0,0,1,338.21,227c-2.61-13.54,1.94-26.16,12.19-33.75A22.87,22.87,0,0,1,364.3,188.65Z" transform="translate(-3.79 -93.15)"/><path class="cls-3" d="M141.65,184.54c3-.54,4.62,1,5.74,3.82q10.62,26.49,21.43,52.92c6.66,16.33,13.39,32.63,20,49,.64,1.57,1.26,3.65-1.13,4.32s-5,1.19-6.21-1.69c-2.29-5.22-4.5-10.48-6.47-15.82-1.17-3.18-3-4.51-6.51-4.49q-27.09.21-54.19,0c-3.27,0-5,1.29-6.07,4.16-2.07,5.31-4.3,10.56-6.53,15.8a4.69,4.69,0,0,1-6.3,2.09c-2.59-1.22-1.52-3.2-.8-5q12.75-31.54,25.52-63.06Q128.07,207,136,187.43C137,184.89,139,184.25,141.65,184.54Zm-.33,81.13c7.72,0,15.45,0,23.17,0,3.89,0,5-1.79,3.53-5.43-7.73-19.12-15.42-38.26-23.26-57.34-.53-1.29-2.12-3-3.23-3s-2.63,1.71-3.2,3c-3,7-5.83,14.1-8.71,21.17-4.9,12-9.82,24.08-14.67,36.14-1.54,3.84-.37,5.43,3.86,5.44C126.31,265.69,133.82,265.67,141.32,265.67Z" transform="translate(-3.79 -93.15)"/><path class="cls-3" d="M231.69,272.17c0-6.82.37-13.67-.15-20.45a24,24,0,0,0-3.38-10.21c-10.11-16.62-20.52-33-30.83-49.55a6.21,6.21,0,0,1-.74-1.07c-.68-1.82-3.33-3.57-.7-5.62,2-1.56,6.24-.31,7.7,2q13.07,20.9,26.11,41.81c1.26,2,2.5,4,3.81,6,1.92,2.91,3.4,2.92,5.24,0q8.72-13.86,17.37-27.76c4.12-6.6,8.3-13.17,12.3-19.84a5.07,5.07,0,0,1,5-2.75c3.82.12,4.8,1.61,2.81,4.88-3.81,6.28-7.75,12.49-11.65,18.72-7.1,11.37-14.24,22.72-21.31,34.11a18.93,18.93,0,0,0-3,10.41c.13,12.56.05,25.13,0,37.69,0,3.91-1,5-4.31,5-3.12,0-4.09-1.08-4.12-4.85,0-6.17,0-12.34,0-18.52Z" transform="translate(-3.79 -93.15)"/><path class="cls-3" d="M43.1,243.27q0-23.25,0-46.49c0-4.73-.4-5.12-5.28-5.13q-14.85,0-29.72,0c-2.4,0-4.32-.27-4.31-3.43s2-3.44,4.36-3.44H86.87c2.16,0,4.17.16,4.35,3.13s-1.32,3.75-4,3.73c-9.91,0-19.82,0-29.73,0-5.45,0-5.78.33-5.79,5.67q0,46.34,0,92.65c0,4.3-.94,5.51-4.13,5.57s-4.49-1-4.5-4.48c0-9.11,0-18.21,0-27.31Z" transform="translate(-3.79 -93.15)"/><path class="cls-3" d="M290.6,185.34h6.71V191q0,42.41,0,84.82c0,8.59.94,9.77,9.35,11.89,16,4.05,32.15,6.32,48.32,1.16a86.13,86.13,0,0,0,15.83-7c3.46-1.95,5.56-1.88,7.44,2.22-7.62,5.67-16.3,9.11-25.51,11.28-17.33,4.08-34.29,1.33-51.11-3.16-11-2.95-11-3-11-14.38V185.34Z" transform="translate(-3.79 -93.15)"/><path class="cls-3" d="M222.64,354.27a6.21,6.21,0,0,0,.84-1.06q5.69-12.54,11.36-25.09c.37-.8.42-2,1.63-2.06s1.32,1.13,1.68,2L248.82,353a14.7,14.7,0,0,0,.86,1.37c.7-2.52,1.31-4.68,1.91-6.84.83-3,1.66-6,2.48-9s1.58-5.84,2.38-8.75,1.66-6,2.48-9c.28-1,.55-2.06.78-3.1.32-1.43.81-1.84,2.21-1.76s1.58.55,1.21,1.83c-.85,3-1.61,6-2.44,9s-1.66,5.91-2.48,8.86-1.56,5.75-2.35,8.62q-1.25,4.58-2.5,9.13c-.6,2.19-1.26,4.36-1.78,6.57-.21.87-.47,1.72-1.43,1.6a2.54,2.54,0,0,1-1.65-1.25c-1.39-3-2.64-6.14-3.95-9.21-2.59-6.06-5.19-12.1-7.89-18.4a5.33,5.33,0,0,0-.81,1Q229.9,346.83,224,360c-.39.85-.74,1.72-1.87,1.6s-1.17-1-1.38-1.86c-.78-3.14-1.69-6.25-2.51-9.39s-1.53-6.21-2.34-9.31-1.68-6.26-2.52-9.39c-.58-2.19-1.16-4.38-1.71-6.58-.62-2.46-1.16-4.93-1.82-7.38-.22-.82-.25-1.41.67-1.69,1.22-.38,2.29,0,2.55,1.05,1,3.75,1.86,7.51,2.83,11.25.79,3.1,1.66,6.18,2.47,9.28s1.57,6.21,2.37,9.31C221.31,349.21,221.92,351.52,222.64,354.27Z" transform="translate(-3.79 -93.15)"/><path class="cls-3" d="M197,354.61v-1.7q0-17.51,0-35c0-.88,0-1.74,1.15-1.94,1.53-.27,2.05.13,2.05,1.71q0,21.06,0,42.13c0,.7.15,1.65-.82,1.7a2.92,2.92,0,0,1-2.12-.7c-1.76-2-3.35-4.21-5-6.34l-22.66-29.42-2-2.52-.35.07c0,.54-.11,1.07-.11,1.6q0,17.78,0,35.54c0,1.1-.22,1.85-1.49,1.91S164,361.29,164,360q0-21.25,0-42.53c0-.49.4-1.39.6-1.38.82,0,2,0,2.41.55,1.78,2,3.36,4.2,5,6.33l23.9,31c.21.28.43.55.64.82Z" transform="translate(-3.79 -93.15)"/><path class="cls-3" d="M66.74,338.73V318.28c0-2,.24-2.23,2.27-2.23,4.23,0,8.47-.13,12.69.07,6,.28,11.53,2,15.86,6.39a18.26,18.26,0,0,1,5.29,11,43.63,43.63,0,0,1,.45,7.47c-.58,9.2-5.5,17.45-16.72,19.77a36.23,36.23,0,0,1-6.14.72c-3.87.12-7.75.07-11.62.05-1.64,0-2.07-.46-2.07-2.09Q66.73,349.09,66.74,338.73Zm3.42-.06q0,8.94,0,17.89c0,1.75.32,2.05,2,2.05,2.84,0,5.69.17,8.5-.06a30.74,30.74,0,0,0,7.53-1.34c8.84-3,11.27-9.67,11.87-16.79a37.33,37.33,0,0,0-.43-6.13,16.25,16.25,0,0,0-3-8.05c-3.1-4.44-7.74-6.34-12.87-6.93-3.74-.43-7.55-.27-11.33-.33-2.07,0-2.28.22-2.28,2.34Q70.16,330,70.16,338.67Z" transform="translate(-3.79 -93.15)"/><path class="cls-3" d="M324.3,338.73V318.14c0-2.09.25-2.36,2.31-2.34,4.73.07,9.46,0,14.18.3,6.69.42,13.77,6.2,15.51,12.61,1.65,6.08-.63,12.62-6.32,16.91a29.5,29.5,0,0,1-3.33,2c-1.3.71-1.47,1.24-.66,2.55,1.75,2.81,3.53,5.61,5.29,8.41.14.23.3.45.42.69.35.69,1.29,1.39.12,2.15a2.31,2.31,0,0,1-2.88-.65c-1.85-2.91-3.79-5.76-5.49-8.76-1.11-2-2.36-2.87-4.79-2.59a80.06,80.06,0,0,1-8.77.12c-2,0-2.18.19-2.18,2.12,0,2.6,0,5.21,0,7.81,0,1.55-.47,2.07-1.8,2.05s-1.59-.44-1.6-2.08Zm3.41-6.25c0,4.13,0,8.26,0,12.39,0,1.54.28,1.83,1.8,1.83,2.84,0,5.68.06,8.52,0a17.26,17.26,0,0,0,11-4.24,13.1,13.1,0,0,0,2.2-17,15.62,15.62,0,0,0-12.11-6.6c-3.27-.25-6.58,0-9.87-.12-1.2,0-1.55.37-1.53,1.54C327.74,324.31,327.71,328.4,327.71,332.48Z" transform="translate(-3.79 -93.15)"/><path class="cls-3" d="M272.4,338.92c.05-8.31,3.33-15,9.93-19.94,8.39-6.25,19.95-4.86,27.06,3.06a24.09,24.09,0,0,1,6,13C316.76,344.28,314,352,307,358a20,20,0,0,1-26.77-.88,24.16,24.16,0,0,1-6.86-11.33A54.07,54.07,0,0,1,272.4,338.92Zm3.31,2.24c-.17,3.46,2.25,8.74,5.15,12.16,5.69,6.72,14.79,8.53,21.83,4.07,8.51-5.39,11.14-14.93,9.31-23.64a20.88,20.88,0,0,0-7.38-12,16.47,16.47,0,0,0-18.45-1.67C279.09,324.3,275.9,330.76,275.71,341.16Z" transform="translate(-3.79 -93.15)"/><path class="cls-3" d="M405.71,338.66c0-7,0-13.91,0-20.86,0-1.1.25-1.83,1.53-1.87s1.72.18,1.73,1.68q0,10,0,20.05c0,2.27.33,2.6,2.55,2.6h25.54c2.08,0,2.19-.12,2.19-2.22,0-6.73,0-13.46,0-20.19,0-1.51.41-1.9,1.76-1.93,1.09,0,1.57.46,1.56,1.53s0,2.15,0,3.23v38.76c0,1.75-.42,2.2-1.82,2.1-1.13-.08-1.53-.69-1.53-1.78,0-4.89,0-9.78,0-14.67,0-1.68-.23-1.93-2-1.94H411.2c-1.77,0-2.23.47-2.23,2.25,0,4.75,0,9.51,0,14.26,0,1-.08,1.9-1.45,1.89s-1.8-.46-1.8-1.89Q405.7,349.16,405.71,338.66Z" transform="translate(-3.79 -93.15)"/><path class="cls-3" d="M150.45,331.93c0,4-.09,8.08,0,12.12.23,8-5.69,14.38-11.57,16.58-9.46,3.55-19.54.18-24.37-9.09a16.31,16.31,0,0,1-1.83-7.34c-.11-8.84-.06-17.68-.06-26.52a1.7,1.7,0,0,1,2.63-1.61,1.26,1.26,0,0,1,.53.81,6.65,6.65,0,0,1,0,1.34c0,8.26,0,16.52.09,24.77a15.53,15.53,0,0,0,2.69,9.25c3.59,4.94,8.46,7.38,14.55,6.76a14.81,14.81,0,0,0,13-9.86,15.55,15.55,0,0,0,1-5.45c.1-8.66.07-17.32,0-26,0-1.25.36-1.82,1.68-1.8,1.14,0,1.57.45,1.55,1.62,0,4.8,0,9.6,0,14.4Z" transform="translate(-3.79 -93.15)"/><path class="cls-3" d="M378.15,340.21V320.82c0-1.87-.18-2.05-2.12-2.05H363.74c-.95,0-1.83,0-1.85-1.35s.84-1.49,1.87-1.49h32.43c.87,0,1.76,0,1.86,1.23s-.41,1.62-1.56,1.61c-3.74,0-7.48,0-11.22,0h-1.08c-2.34,0-2.46.12-2.46,2.41v38.23c0,1.88-.39,2.37-1.78,2.37s-1.79-.47-1.79-1.92q0-9.23,0-18.44Z" transform="translate(-3.79 -93.15)"/></svg>