<?xml version="1.0" encoding="utf-8"?>
<!-- Generator: Adobe Illustrator 23.1.1, SVG Export Plug-In . SVG Version: 6.00 Build 0)  -->
<svg version="1.1" id="Layer_1" xmlns="http://www.w3.org/2000/svg" xmlns:xlink="http://www.w3.org/1999/xlink" x="0px" y="0px"
	 viewBox="0 0 198.42 95.14" style="enable-background:new 0 0 198.42 95.14;" xml:space="preserve">
<style type="text/css">
	.st0{opacity:0.67;}
	.st1{fill:#D95F80;}
	.st2{fill-rule:evenodd;clip-rule:evenodd;fill:#F2B544;}
	.st3{fill:#F2A649;}
	.st4{fill:#1F8DA6;}
	.st5{fill:#F2836B;}
	.st6{fill:#192526;}
</style>
<g>
	<g class="st0">
		<path class="st1" d="M16.43,54.52c0-10.7,2.93-20.17,10.91-27.82c8.66-8.3,20.94-4.86,26.3,1.95c2.87,3.64,4.52,7.76,4.63,12.37
			c0.28,11.86-3.88,21.95-12.74,29.87c-5.34,4.78-11.6,7.03-18.59,4.07c-7.15-3.02-10-9.11-10.49-16.52
			C16.36,57.14,16.43,55.83,16.43,54.52z"/>
		<path class="st2" d="M21.4,91.77c-0.44,0.34-0.7,0.54-0.97,0.75c-0.85-0.17-1-0.4-1.01-1.56c-0.15-0.1-0.32-0.2-0.5-0.32
			c0.01-0.31-0.1-0.76,0.06-0.9c0.39-0.36,0.34-0.8,0.37-1.21c0.19-2.28,0.29-4.56,0.51-6.83c0.12-1.22,0.37-2.43,0.62-3.63
			c0.36-1.74,0.77-3.46,1.15-5.2c0.04-0.18,0.31-0.46-0.13-0.56c-0.01,0,0-0.19,0.03-0.28c0.56-1.76,1.12-3.52,1.68-5.28
			c0.04-0.14,0.08-0.33,0.19-0.39c0.49-0.31,0.59-0.87,0.91-1.29c0.21-0.27,0.48-0.49,0.68-0.76c0.36-0.49,0.76-0.97,1-1.52
			c0.18-0.41,0.41-0.71,0.72-0.99c0.33-0.29,0.66-0.59,0.99-0.87c0.19-0.16,0.32-0.5,0.66-0.23c0.24-0.23,0.51-0.43,0.71-0.7
			c0.19-0.25,0.27-0.58,0.45-0.84c0.23-0.35,0.49-0.61,0.99-0.62c0.41-0.01,0.82-0.21,1.23-0.33c0.2,0.14,0.39,0.28,0.64,0.46
			c0.37-0.59,0.76-1.11,0.67-1.83c-0.08-0.64,0.1-1.22,0.49-1.73c0.07-0.09,0.16-0.21,0.26-0.23c0.66-0.12,0.91-0.59,1.06-1.17
			c0.02-0.07,0.07-0.13,0.12-0.22c0.15,0.04,0.31,0.09,0.54,0.15c0.06-0.22,0.14-0.44,0.18-0.67c0.21-0.99,0.37-1.99,0.62-2.96
			c0.26-1.02,0.74-1.91,1.65-2.54c0.48-0.34,0.92-0.42,1.44-0.21c0.38,0.16,0.75,0.28,1.2,0.22c0.43-0.05,0.82,0.17,1.04,0.65
			c0.41,0.92,0.54,1.89,0.6,2.88c0.05,0.96,0.14,1.92,0.06,2.87c-0.11,1.39-0.33,2.78-0.53,4.16c-0.12,0.83-0.29,1.65-0.44,2.47
			c-0.04,0.19-0.08,0.39-0.14,0.57c-0.44,1.26-0.7,2.55-0.93,3.86c-0.21,1.21-0.51,2.41-0.81,3.61c-0.35,1.4-0.7,2.81-1.12,4.19
			c-0.72,2.35-1.51,4.68-2.27,7.01c-0.51,1.57-1.01,3.14-1.52,4.71c-0.53,1.65-1.14,3.25-2.23,4.63c-0.36,0.46-0.68,0.96-1.02,1.44
			c-0.91,1.28-2.26,2.12-3.38,3.18c-0.32,0.3-0.87,0.4-1.33,0.49c-0.67,0.13-1.36,0.22-2.05,0.24c-0.41,0.01-0.69,0.1-0.95,0.42
			c-0.32,0.4-0.56,0.38-0.89-0.04c-0.31-0.38-0.62-0.77-0.87-1.19c-0.13-0.22-0.16-0.51-0.22-0.77
			C21.54,92.56,21.49,92.26,21.4,91.77z M40.84,47.8c-0.09,0.48-0.09,0.48,0.36,0.35C41.07,48.03,40.97,47.92,40.84,47.8z"/>
		<g>
			<path class="st3" d="M11.46,62.76c-1.21,1.11-2.94,0.67-3.45-0.89c-0.24-0.73-0.28-1.49,0.06-2.2c0.19-0.39,0.23-0.75,0.18-1.18
				c-0.04-0.33,0-0.69,0.07-1.02c0.15-0.72,0.58-1.23,1.3-1.44c0.76-0.22,1.42-0.01,1.97,0.54C12.89,57.9,12.81,61.52,11.46,62.76z"
				/>
			<path class="st3" d="M31.93,73.65c0.83,1.07,1.14,2.53,0.62,4.11c-0.37,1.12-1.37,1.8-2.4,1.73c-1.06-0.07-1.87-0.85-2.09-2.06
				c-0.08-0.43-0.07-0.88-0.07-1.33c0-0.61,0.04-1.21,0.03-1.82c-0.01-0.99,0.71-1.74,1.74-1.77C30.56,72.48,31.2,72.83,31.93,73.65
				z"/>
			<path class="st3" d="M7.62,47.74c0.67,0.9,1.09,2.11,0.97,3.47C8.53,51.91,8.25,52.53,7.7,53c-1.03,0.88-2.56,0.63-3.29-0.57
				c-0.7-1.15-0.9-2.43-0.77-3.76c0.1-0.95,0.6-1.57,1.53-1.85C6.12,46.55,6.87,46.84,7.62,47.74z"/>
			<path class="st3" d="M10.91,36.02c0.76,1.34,1.39,2.95,1.14,4.76c-0.15,1.04-0.91,1.73-1.82,1.81c-0.87,0.07-1.65-0.45-2.04-1.41
				c-0.14-0.34-0.24-0.71-0.3-1.08c-0.15-0.91-0.32-1.82-0.38-2.74c-0.03-0.48,0.04-1.06,0.29-1.46
				C8.44,34.82,9.88,34.83,10.91,36.02z"/>
			<path class="st3" d="M23.64,68.82c0.35,0.67,0.74,1.31,1.02,2c0.17,0.43,0.23,0.94,0.22,1.4c-0.03,0.85-0.45,1.51-1.22,1.89
				c-0.82,0.4-1.65,0.3-2.32-0.27c-1.37-1.18-1.9-2.74-1.73-4.51c0.09-0.96,0.72-1.4,1.7-1.42C22.42,67.89,22.94,68.11,23.64,68.82z
				"/>
			<path class="st3" d="M26.28,50.76c0.82,1.16,1.36,2.5,1.12,4.05c-0.15,0.97-0.83,1.68-1.69,1.84c-0.95,0.17-1.68-0.21-2.2-0.98
				c-0.77-1.15-1.08-2.43-0.95-3.8c0.08-0.89,0.56-1.55,1.42-1.83C24.86,49.74,25.59,50.07,26.28,50.76z"/>
			<path class="st3" d="M22.07,49.56c-1.05,0.77-2.37,0.76-3.15-0.2c-1.1-1.35-1.26-2.93-0.78-4.56c0.18-0.61,0.66-0.94,1.32-0.95
				c0.14,0,0.27,0.03,0.41,0.03c1.58-0.03,2.28,0.4,2.7,1.9c0.2,0.71,0.24,1.49,0.16,2.22C22.67,48.54,22.3,49.04,22.07,49.56z"/>
			<path class="st3" d="M25.93,65.69c-1.24,1.09-2.95,0.82-3.68-0.53c-0.62-1.15-0.65-2.37-0.18-3.57c0.29-0.76,0.86-1.17,1.72-1.24
				c1.74-0.14,2.51,0.37,2.9,2.1C26.97,63.69,26.79,64.83,25.93,65.69z"/>
			<path class="st3" d="M15.52,52.82c-1.1,0.99-2.69,0.8-3.34-0.42c-0.31-0.58-0.44-1.29-0.49-1.96c-0.05-0.67,0.06-1.37,0.18-2.04
				c0.23-1.31,1.62-1.92,2.78-1.25c1.49,0.86,2.15,3.96,1.13,5.35C15.69,52.64,15.57,52.76,15.52,52.82z"/>
			<path class="st3" d="M19.35,61.77c-0.91,0.84-2.15,0.75-2.85-0.29c-0.76-1.14-0.93-2.42-0.63-3.75c0.14-0.61,0.54-1.01,1.21-1.11
				c0.26-0.04,0.52-0.15,0.77-0.25c0.98-0.4,1.84-0.08,2.32,0.87C20.77,58.44,20.33,60.87,19.35,61.77z"/>
			<path class="st3" d="M3.49,39.17c0.74,0.81,1.06,1.75,0.88,2.84c-0.17,1.01-0.9,1.73-1.82,1.85c-0.89,0.11-1.72-0.35-2.13-1.28
				C0.2,42.08,0.07,41.53,0.01,41c-0.07-0.57,0.15-1.08,0.61-1.46c0.18-0.15,0.35-0.32,0.51-0.5c0.71-0.84,1.4-0.87,2.16-0.1
				C3.35,39.01,3.42,39.09,3.49,39.17z"/>
		</g>
	</g>
	<g class="st0">
		<g>
			<path class="st4" d="M115.52,41.77c0.18-4.62,1.46-8.95,3.28-13.17c2.65-6.13,6.44-11.55,11.47-16.23
				c2.67-2.48,5.45-4.83,8.5-6.88c1-0.67,2.02-1.36,3.14-1.84c5.35-2.32,10.95-3.76,16.89-3.63c2.02,0.04,4.08,0.26,6.05,0.66
				c2.69,0.55,5.35,1.24,7.96,2.06c3.38,1.08,6.24,3,8.67,5.43c1.49,1.49,2.27,3.35,2.62,5.32c0.3,1.72,0.45,3.48,0.51,5.23
				c0.06,1.81-0.49,3.55-1.2,5.22c-1.3,3.09-2.75,6.11-4.68,8.93c-1.57,2.29-3.01,4.66-4.56,6.97
				c-5.25,7.83-12.56,13.31-21.77,16.63c-4.1,1.48-8.21,2.95-12.58,3.58c-6.27,0.9-12.1-0.16-17.23-3.78
				c-3.29-2.32-5.23-5.51-6.2-9.19C115.92,45.34,115.79,43.54,115.52,41.77z"/>
		</g>
		<g>
			<path class="st5" d="M146.66,52.05c-0.03,1.03-0.28,2.16-0.83,3.21c-0.17,0.33-0.39,0.65-0.64,0.92c-0.76,0.82-1.8,1.06-2.7,0.65
				c-0.9-0.4-1.52-1.36-1.35-2.43c0.27-1.76,0.63-3.52,1.95-4.87c0.21-0.22,0.43-0.44,0.69-0.61c0.43-0.28,0.91-0.31,1.36-0.02
				C146.03,49.5,146.66,50.74,146.66,52.05z"/>
			<path class="st5" d="M172.82,70.13c0.23-1.5,0.82-2.95,2.16-3.95c1.45-1.08,3.41-0.22,3.49,1.58c0.07,1.63-0.47,3.12-1.69,4.26
				c-0.73,0.69-1.63,0.88-2.57,0.45C173.26,72.04,172.87,71.24,172.82,70.13z"/>
			<path class="st5" d="M163.6,78.03c0.04-0.19,0.06-0.5,0.15-0.8c0.44-1.39,1.14-2.64,2.13-3.72c0.73-0.8,1.44-1.02,2.08-0.63
				c0.91,0.55,1.73,1.35,1.4,2.5c-0.43,1.48-1.06,2.91-2.14,4.05c-0.76,0.8-1.81,0.98-2.62,0.51
				C163.9,79.55,163.63,78.92,163.6,78.03z"/>
			<path class="st5" d="M179.13,23.28c-0.12,1.16-0.55,2.26-1.57,3.04c-0.86,0.66-1.81,0.82-2.79,0.28
				c-0.98-0.54-1.39-1.44-1.28-2.5c0.15-1.46,0.82-2.69,1.97-3.61c1-0.81,1.88-0.59,2.51,0.52c0.13,0.23,0.34,0.42,0.53,0.61
				C178.93,22.06,179.11,22.59,179.13,23.28z"/>
			<path class="st5" d="M129.87,79.45c0.05-1.74,0.84-3.15,2.05-4.33c0.71-0.69,1.64-0.79,2.37-0.37c0.81,0.46,1.1,1.21,0.98,2.09
				c-0.19,1.38-0.64,2.67-1.56,3.74c-0.28,0.33-0.64,0.63-1.02,0.84c-1.53,0.88-3.02-0.29-2.82-1.66
				C129.89,79.66,129.87,79.55,129.87,79.45z"/>
			<path class="st5" d="M176.4,52.2c-1.24,0.03-2.2-1.11-1.86-2.36c0.22-0.81,0.66-1.56,1.03-2.33c0.23-0.49,0.51-0.96,0.78-1.43
				c0.12-0.21,0.22-0.43,0.36-0.62c0.6-0.82,1.62-1.1,2.45-0.68c0.84,0.42,1.24,1.39,0.86,2.37c-0.5,1.27-1.05,2.52-1.67,3.74
				C177.89,51.77,177.17,52.18,176.4,52.2z"/>
			<path class="st5" d="M178.42,41.58c-1.64,0.02-2.64-1.46-1.98-2.96c0.31-0.71,0.78-1.3,1.51-1.6c0.4-0.17,0.68-0.4,0.92-0.76
				c0.19-0.28,0.46-0.51,0.73-0.71c0.59-0.44,1.25-0.53,1.93-0.21c0.72,0.34,1.07,0.94,1.1,1.72
				C182.74,38.92,180.26,41.56,178.42,41.58z"/>
			<path class="st5" d="M171.1,29.65c-0.21,1.39-0.72,2.82-1.85,3.96c-0.79,0.8-1.81,0.97-2.63,0.5c-0.83-0.47-1.17-1.39-0.89-2.51
				c0.32-1.28,0.91-2.44,1.71-3.48c0.69-0.89,1.32-1.04,2.35-0.66C170.65,27.77,171.11,28.49,171.1,29.65z"/>
			<path class="st5" d="M149.5,73.77c0.13-0.95,0.35-2.01,1.2-2.83c0.24-0.23,0.39-0.56,0.59-0.83c0.55-0.75,1.3-1.06,2.04-0.83
				c0.8,0.24,1.49,1.06,1.51,1.89c0.01,0.4-0.01,0.84-0.16,1.21c-0.41,0.97-0.83,1.96-1.37,2.86c-0.58,0.98-1.57,1.3-2.46,0.99
				C149.94,75.9,149.45,75.06,149.5,73.77z"/>
			<path class="st5" d="M186.41,63.36c-0.1,1.35-0.84,2.64-2.28,3.47c-1.02,0.59-2.22,0.43-2.94-0.31
				c-0.74-0.76-0.83-1.88-0.18-2.93c0.23-0.37,0.54-0.71,0.83-1.04c0.4-0.45,0.84-0.88,1.24-1.34c0.65-0.74,1.69-0.82,2.48-0.16
				C186.16,61.57,186.42,62.26,186.41,63.36z"/>
			<path class="st5" d="M185.6,27.83c-0.1,1.12-0.6,2.29-1.59,3.23c-0.52,0.49-1.14,0.76-1.86,0.75c-1.35-0.03-2.33-1.24-2.07-2.62
				c0.25-1.32,0.95-2.41,1.94-3.31c0.71-0.64,1.5-0.77,2.37-0.35C185.27,25.95,185.63,26.66,185.6,27.83z"/>
			<path class="st5" d="M195.86,21.3c-0.32,1.51-0.93,3.12-2.33,4.31c-0.8,0.68-1.83,0.69-2.56,0.13c-0.7-0.53-0.93-1.44-0.58-2.41
				c0.12-0.35,0.3-0.69,0.5-1.01c0.49-0.78,0.97-1.57,1.54-2.29c0.3-0.38,0.74-0.76,1.19-0.9C194.82,18.76,195.89,19.72,195.86,21.3
				z"/>
			<path class="st5" d="M183.45,54.23c-0.19,0.73-0.32,1.47-0.58,2.17c-0.16,0.44-0.45,0.85-0.77,1.19
				c-0.59,0.61-1.34,0.83-2.17,0.59c-0.87-0.25-1.43-0.88-1.54-1.75c-0.23-1.79,0.41-3.31,1.72-4.52c0.71-0.65,1.47-0.57,2.22,0.08
				C183.17,52.71,183.42,53.23,183.45,54.23z"/>
			<path class="st5" d="M197.48,42.53c-0.16,1.42-0.66,2.77-1.86,3.77c-0.76,0.62-1.74,0.7-2.49,0.24c-0.82-0.51-1.11-1.28-0.98-2.2
				c0.19-1.37,0.82-2.53,1.83-3.47c0.65-0.61,1.45-0.78,2.28-0.42C197.1,40.83,197.42,41.56,197.48,42.53z"/>
			<path class="st5" d="M142.44,81.62c0.06-1.12,0.36-2.16,1.1-3.03c0.49-0.58,1.11-0.94,1.88-0.88c0.61,0.05,1.12,0.34,1.4,0.91
				c0.74,1.49,0.7,2.98-0.07,4.44c-0.53,1-1.53,1.5-2.46,1.3c-0.99-0.21-1.71-1.08-1.83-2.22C142.44,81.97,142.44,81.8,142.44,81.62
				z"/>
			<path class="st5" d="M142.28,69.64c-0.08,0.45-0.2,1.34-0.43,2.19c-0.13,0.48-0.41,0.94-0.72,1.34c-0.47,0.61-1.15,0.88-1.92,0.7
				c-0.81-0.19-1.31-0.73-1.47-1.54c-0.08-0.43-0.08-0.88-0.06-1.32c0.05-1.02,0.53-1.9,0.98-2.79c0.5-1,1.36-1.45,2.23-1.23
				C141.82,67.21,142.33,68.02,142.28,69.64z"/>
			<path class="st5" d="M195.14,38.84c-1.29-0.12-2.28-1.02-2.21-2.25c0.09-1.74,1.02-3.02,2.46-3.92c0.54-0.33,1.12-0.26,1.62,0.17
				c0.1,0.09,0.19,0.2,0.29,0.29c1.2,1.03,1.43,1.82,0.74,3.21c-0.33,0.66-0.82,1.27-1.36,1.76
				C196.27,38.47,195.65,38.6,195.14,38.84z"/>
			<path class="st5" d="M187.25,53.42c-1.65-0.01-2.75-1.36-2.39-2.85c0.3-1.27,1.09-2.2,2.25-2.78c0.73-0.37,1.42-0.3,2.11,0.22
				c1.39,1.06,1.62,1.95,0.76,3.5C189.36,52.63,188.46,53.36,187.25,53.42z"/>
			<path class="st5" d="M134.82,87.59c-0.17,1.48-0.62,2.83-1.65,3.92c-0.75,0.79-1.72,0.94-2.52,0.46
				c-0.76-0.46-1.06-1.32-0.78-2.35c0.34-1.24,0.93-2.36,1.73-3.36c0.21-0.26,0.48-0.5,0.77-0.67c1-0.59,2.02-0.14,2.28,0.99
				C134.73,86.92,134.77,87.26,134.82,87.59z"/>
			<path class="st5" d="M146.16,75c-1.3-0.02-2.07-0.89-1.88-2.03c0.22-1.37,0.76-2.63,1.52-3.78c0.57-0.86,1.25-1.03,2.23-0.66
				c1,0.37,1.49,1.05,1.36,2.02c-0.17,1.2-0.56,2.33-1.3,3.31C147.58,74.55,146.92,74.99,146.16,75z"/>
			<path class="st5" d="M162.17,41.88c-0.1,1.25-0.57,2.44-1.59,3.35c-0.88,0.78-2,0.88-2.84,0.3c-0.82-0.57-1.07-1.55-0.67-2.67
				c0.35-0.98,0.88-1.86,1.64-2.58c0.61-0.57,1.32-0.91,2.15-0.54C161.74,40.11,162.14,40.83,162.17,41.88z"/>
			<path class="st5" d="M188.09,36.89c-1.48,0.01-2.54-1.2-2.21-2.54c0.16-0.64,0.54-1.26,0.94-1.79c0.41-0.53,0.96-0.98,1.5-1.4
				c1.05-0.82,2.49-0.34,2.91,0.93c0.54,1.63-1.04,4.39-2.73,4.74C188.33,36.87,188.16,36.88,188.09,36.89z"/>
			<path class="st5" d="M174.88,55.78c-0.1,1-0.42,2.08-1.1,3.01c-0.27,0.37-0.65,0.72-1.06,0.93c-1.35,0.7-2.83-0.16-2.86-1.67
				c-0.02-1.46,0.52-2.74,1.53-3.8c0.23-0.24,0.55-0.41,0.86-0.53C173.76,53.15,174.94,54.02,174.88,55.78z"/>
			<path class="st5" d="M152.84,61.82c0.11-0.01,0.25-0.04,0.39-0.04c0.78,0,1.27,0.42,1.2,1.19c-0.05,0.6-0.29,1.19-0.48,1.76
				c-0.19,0.55-0.4,1.09-0.67,1.6c-0.26,0.51-0.52,1.07-0.94,1.43c-1.01,0.88-2.56,0.37-2.84-0.93c-0.27-1.27-0.13-2.62,0.57-3.67
				C150.64,62.32,151.53,61.5,152.84,61.82z"/>
			<path class="st5" d="M171.34,61.92c1.08-0.04,1.9,0.66,1.84,1.74c-0.1,1.67-0.88,3.04-2.35,3.86c-1.36,0.76-2.91-0.22-3.02-1.8
				C167.67,63.63,169.19,61.99,171.34,61.92z"/>
			<path class="st5" d="M160.4,56.43c-0.29,0.94-0.52,1.91-0.89,2.82c-0.18,0.45-0.56,0.87-0.95,1.18c-0.6,0.49-1.32,0.56-2.03,0.22
				c-0.71-0.34-1.07-0.94-1.1-1.73c-0.04-1.07,0.39-2,0.95-2.88c0.24-0.37,0.53-0.72,0.82-1.06c0.58-0.68,1.32-0.92,2.01-0.63
				c0.76,0.31,1.05,0.94,1.07,1.72c0,0.1,0,0.21,0,0.31C160.31,56.41,160.35,56.42,160.4,56.43z"/>
			<path class="st5" d="M165.8,49.02c-0.3,0.83-0.53,1.69-0.92,2.46c-0.22,0.42-0.66,0.8-1.09,1.04c-1.34,0.73-2.92-0.13-2.99-1.65
				c-0.07-1.56,0.55-2.89,1.72-3.89c0.98-0.84,2.64-0.22,3.02,1.08c0.09,0.29,0.1,0.6,0.14,0.91C165.73,48.98,165.76,49,165.8,49.02
				z"/>
			<path class="st5" d="M184.97,46.11c-1.24,0.01-2.1-0.88-1.93-2.12c0.2-1.35,0.93-2.42,2.03-3.21c0.51-0.36,1.08-0.39,1.64-0.02
				c0.22,0.15,0.49,0.24,0.74,0.33c1,0.36,1.42,1.17,1.14,2.2C188.24,44.58,186.29,46.1,184.97,46.11z"/>
			<path class="st5" d="M148.59,56.35c0.07-0.3,0.16-0.88,0.35-1.43c0.48-1.4,1.34-1.96,2.81-1.92c1.06,0.03,1.98,1.25,1.81,2.44
				c-0.15,1.05-0.64,1.95-1.33,2.73c-0.65,0.73-1.64,0.96-2.43,0.64C148.98,58.48,148.54,57.68,148.59,56.35z"/>
			<path class="st5" d="M165.53,68.25c-0.13,1.09-0.49,2.26-1.34,3.21c-0.22,0.25-0.51,0.47-0.81,0.62
				c-0.73,0.37-1.47,0.34-2.11-0.2c-0.61-0.51-0.79-1.2-0.57-1.95c0.14-0.49,0.39-0.95,0.59-1.42c0.17-0.37,0.37-0.73,0.51-1.11
				c0.42-1.1,1.23-1.65,2.17-1.45C164.92,66.15,165.54,67,165.53,68.25z"/>
			<path class="st5" d="M141.29,79.72c-0.04,1.13-0.31,2.08-0.87,2.92c-0.22,0.33-0.51,0.66-0.83,0.89
				c-1.19,0.87-2.73,0.22-2.77-1.25c-0.05-1.68,0.44-3.25,1.66-4.49c0.29-0.29,0.75-0.48,1.17-0.56c0.75-0.13,1.35,0.33,1.49,1.08
				C141.22,78.81,141.24,79.32,141.29,79.72z"/>
			<path class="st5" d="M169.72,38.13c-0.35,1.45-0.99,2.98-2.51,3.95c-0.78,0.5-1.67,0.37-2.29-0.19
				c-0.61-0.56-0.77-1.41-0.37-2.27c0.14-0.31,0.33-0.6,0.54-0.87c0.5-0.65,1.02-1.29,1.55-1.92c0.54-0.64,1.34-0.84,2.04-0.57
				C169.32,36.51,169.72,37.13,169.72,38.13z"/>
			<path class="st5" d="M160.32,65.31c-0.08,1.17-0.45,2.25-1.42,3.04c-0.89,0.72-1.94,0.82-2.76,0.28
				c-0.83-0.55-1.14-1.53-0.69-2.65c0.29-0.72,0.72-1.39,1.16-2.03c0.2-0.29,0.56-0.52,0.89-0.67
				C158.98,62.62,160.34,63.6,160.32,65.31z"/>
			<path class="st5" d="M123.49,86.86c0.13-0.99,0.46-2.08,1.19-2.97c0.33-0.4,0.82-0.74,1.3-0.95c1.04-0.46,2.1,0.16,2.31,1.29
				c0.26,1.44-0.94,3.89-2.24,4.56C124.7,89.48,123.42,88.59,123.49,86.86z"/>
			<path class="st5" d="M163.91,63.41c-1.35,0.03-2.34-0.83-2.49-2.02c-0.12-0.92,0.12-1.77,0.64-2.52
				c0.81-1.18,2.83-1.29,3.75-0.18c0.77,0.92,0.68,1.97,0.25,3C165.64,62.7,164.89,63.33,163.91,63.41z"/>
			<path class="st5" d="M166.34,52.14c0.08-0.99,0.53-2.04,1.46-2.84c0.75-0.65,1.93-0.73,2.69-0.23c0.72,0.47,1.06,1.39,0.79,2.37
				c-0.29,1.08-0.81,2.05-1.8,2.66c-0.69,0.42-1.43,0.48-2.15,0.07C166.62,53.77,166.33,53.14,166.34,52.14z"/>
			<path class="st5" d="M175.29,31.86c0.11-0.02,0.35-0.07,0.58-0.1c0.88-0.11,1.55,0.38,1.68,1.25c0.04,0.26,0.05,0.56-0.02,0.81
				c-0.39,1.41-1.26,2.43-2.64,2.91c-0.86,0.3-1.71,0.15-2.34-0.58c-0.64-0.73-0.64-1.57-0.2-2.39c0.26-0.47,0.61-0.91,0.98-1.3
				C173.82,31.97,174.42,31.66,175.29,31.86z"/>
			<path class="st5" d="M156.41,39.52c-0.03,1.4-1.21,2.86-2.55,3.15c-1.61,0.35-2.92-1.01-2.42-2.57c0.38-1.22,1.17-2.18,2.26-2.84
				c0.82-0.5,1.45-0.31,1.99,0.5C156.28,38.64,156.42,38.98,156.41,39.52z"/>
			<path class="st5" d="M158.97,76.54c-0.06,1.09-0.47,2-1.43,2.58c-1.31,0.8-2.92,0.05-3.1-1.47c-0.15-1.23,0.26-2.31,1.15-3.16
				c0.87-0.83,1.77-0.71,2.53,0.24C158.57,75.26,159.02,75.78,158.97,76.54z"/>
			<path class="st5" d="M147.67,60.3c-0.2,1.05-0.44,2.23-1.1,3.26c-0.21,0.34-0.52,0.66-0.85,0.86c-1.06,0.65-2.31-0.02-2.39-1.26
				c-0.02-0.27,0-0.56,0.1-0.81c0.43-1.04,0.84-2.09,1.35-3.09c0.35-0.69,1.06-0.94,1.74-0.8C147.28,58.62,147.72,59.27,147.67,60.3
				z"/>
			<path class="st5" d="M138.03,89.55c0.04-0.37,0.06-0.64,0.1-0.91c0.25-1.65,1.16-2.35,2.79-2.13c0.7,0.09,1.11,0.56,1.23,1.21
				c0.24,1.27,0,2.47-0.75,3.52c-0.45,0.63-1.11,0.94-1.89,0.74c-0.77-0.19-1.22-0.74-1.38-1.5
				C138.08,90.14,138.06,89.8,138.03,89.55z"/>
			<path class="st5" d="M188.24,18.69c0.01,1.1-0.38,2.02-1.25,2.7c-0.8,0.63-1.82,0.68-2.59,0.16c-0.74-0.51-1.05-1.41-0.73-2.37
				c0.17-0.51,0.44-1,0.76-1.44c0.33-0.47,0.83-0.7,1.43-0.68c0.24,0.01,0.48,0,0.71-0.03c1.09-0.15,1.62,0.28,1.67,1.37
				C188.24,18.49,188.24,18.59,188.24,18.69z"/>
			<path class="st5" d="M150.16,48.36c0.11-0.6,0.14-1.22,0.34-1.79c0.35-1.01,1.19-1.48,2.16-1.32c0.88,0.14,1.54,0.88,1.62,1.86
				c0.09,1.02-0.16,1.97-0.75,2.81c-0.57,0.82-1.44,1.14-2.22,0.86c-0.76-0.27-1.12-0.93-1.08-1.99c0-0.14,0.02-0.27,0.02-0.41
				C150.21,48.37,150.18,48.37,150.16,48.36z"/>
			<path class="st5" d="M144.91,42.58c0.18-1.13,0.69-2.39,1.61-3.44c0.45-0.51,1.11-0.49,1.73-0.28c0.62,0.21,0.97,0.72,0.97,1.33
				c0.02,1.58-0.55,2.95-1.73,4.01c-0.49,0.44-1.14,0.47-1.74,0.17C145.14,44.05,144.89,43.51,144.91,42.58z"/>
			<path class="st5" d="M173.99,42.51c-0.02,0.11-0.04,0.32-0.11,0.5c-0.35,0.85-0.67,1.72-1.09,2.54c-0.46,0.91-1.33,1.23-2.14,0.9
				c-0.78-0.32-1.2-1.21-0.87-2.15c0.33-0.93,0.76-1.83,1.2-2.71c0.38-0.78,1.02-1.05,1.77-0.86
				C173.49,40.92,174.01,41.63,173.99,42.51z"/>
			<path class="st5" d="M163.09,32.79c-0.14,1.51-0.61,2.58-1.6,3.36c-0.77,0.61-1.71,0.63-2.36,0.1c-0.66-0.53-0.85-1.47-0.33-2.32
				c0.56-0.89,1.21-1.73,1.89-2.53c0.46-0.53,1.35-0.46,1.81,0.15C162.81,31.97,162.96,32.51,163.09,32.79z"/>
			<path class="st5" d="M148.2,83.36c0-1.3,1.19-3.02,2.4-3.47c1.02-0.38,2.13,0.35,2.06,1.45c-0.09,1.28-0.52,2.49-1.49,3.4
				c-0.54,0.5-1.2,0.64-1.91,0.34C148.58,84.79,148.2,84.17,148.2,83.36z"/>
		</g>
	</g>
	<g>
		<path class="st6" d="M61.11,50.22l-0.57,23.75c-0.13,1.47-0.19,2.7-0.19,3.69c0,0.99-0.03,1.8-0.1,2.44
			c-0.06,2.11-0.18,3.46-0.34,4.07c-0.16,0.61-0.62,1.04-1.39,1.29c-0.89,0.13-1.79,0.13-2.68,0c-1.15-0.26-1.88-0.77-2.2-1.53
			c-0.32-0.77-0.54-2.23-0.67-4.4l-0.19-5.27h-0.29l-12.83,0.1h-0.29l-0.1,2.49c-0.26,2.62-0.61,4.57-1.05,5.84
			c-0.45,1.72-1.57,2.59-3.35,2.59c-1.72,0-2.84-0.89-3.35-2.68c-0.26-1.53-0.38-2.74-0.38-3.64c-0.06-1.98-0.1-4.88-0.1-8.71
			c0-4.79,0.06-8.46,0.19-11.01v-5.46c0-7.15,0.13-14.14,0.38-20.97c0.06-3.64,0.22-6.42,0.48-8.33c0.25-1.92,0.73-3.3,1.44-4.17
			c0.7-0.86,1.72-1.26,3.06-1.2c2.11-0.25,3.35,0.77,3.73,3.06c0.13,0.51,0.19,0.96,0.19,1.34c0,0.38,0.03,0.67,0.1,0.86
			c0.06,1.53,0.1,3.83,0.1,6.89c0,4.21-0.03,7.37-0.1,9.48c-0.13,6.26-0.26,10.95-0.38,14.08l-0.19,7.47l-0.29,6.51
			c4.08-0.13,7.18-0.19,9.29-0.19c0.64-0.06,1.26-0.08,1.87-0.05c0.61,0.03,1.16,0.02,1.68-0.05v-6.51
			c-0.06-3.64-0.1-8.59-0.1-14.84v-6.32l0.1-4.6c0-1.92,0.06-5.11,0.19-9.58c0.13-2.17,0.45-3.86,0.96-5.08
			c0.51-1.21,1.4-1.82,2.68-1.82c0.77,0,1.59,0.22,2.49,0.67c0.77,0.38,1.23,0.99,1.39,1.82c0.16,0.83,0.34,2.49,0.53,4.98
			l0.19,8.43C61.01,42.3,61.04,47.15,61.11,50.22z"/>
		<path class="st6" d="M87.83,82.2c0,0.7-0.32,1.34-0.96,1.92c-0.51,0.45-1.53,0.77-3.06,0.96c-1.66,0.19-4.21,0.29-7.66,0.29h-5.65
			c-3.26,0-4.88-0.96-4.88-2.87l-0.1-6.42c-0.13-2.17-0.19-3.96-0.19-5.36c-0.13-8.43-0.19-16.02-0.19-22.79
			c0-3.45,0.06-8.24,0.19-14.36c0-0.45,0.01-1.87,0.05-4.26c0.03-2.39,0.32-4.31,0.86-5.75c0.54-1.44,1.32-2.44,2.35-3.02
			c1.4-0.64,3.26-0.96,5.55-0.96l8.71-0.1c1.4,0,2.55,0.16,3.45,0.48c1.53,0.38,2.3,1.37,2.3,2.97c0,0.7-0.26,1.36-0.77,1.96
			c-0.51,0.61-1.09,0.94-1.72,1.01c-1.02,0.13-2.78,0.19-5.27,0.19l-6.51,0.1l0.1,2.01c0.13,1.79,0.25,5.43,0.38,10.92
			c0.13,4.98,0.19,8.78,0.19,11.4l-0.1,15.32v0.38c0,0.38,0.03,0.57,0.1,0.57h7.57c1.85,0,3.05,0.13,3.59,0.38
			c0.54,0.26,0.81,1.02,0.81,2.3c0,0.77-0.26,1.36-0.77,1.77c-0.51,0.42-1.21,0.62-2.11,0.62c-0.51,0.06-0.97,0.08-1.39,0.05
			c-0.42-0.03-0.81-0.05-1.2-0.05h-2.01H74.8l-0.1,3.83l-0.1,3.64l3.45-0.1h5.36c1.4,0,2.55,0.35,3.45,1.05
			C87.5,80.86,87.83,81.5,87.83,82.2z"/>
		<path class="st6" d="M109.75,82.49c0,0.64-0.22,1.15-0.67,1.53c-0.26,0.25-0.59,0.46-1.01,0.62c-0.42,0.16-0.69,0.24-0.81,0.24
			c-1.53,0.25-3.42,0.38-5.65,0.38c-2.04,0.13-3.64,0.19-4.79,0.19c-0.26,0-1.09-0.06-2.49-0.19c-1.85-0.32-2.84-1.56-2.97-3.73
			c-0.06-0.83-0.13-1.8-0.19-2.92c-0.06-1.12-0.1-1.99-0.1-2.63c-0.26-10.09-0.38-17.56-0.38-22.41l0.19-18.48
			c0-1.02,0.03-1.76,0.1-2.2c0-3.38,0.13-6.38,0.38-9c0.19-1.4,0.29-2.14,0.29-2.2c0.32-1.28,1.15-2.14,2.49-2.59
			c0.19-0.06,0.51-0.1,0.96-0.1c1.72,0,2.9,0.93,3.54,2.78l0.29,2.49c0.32,4.41,0.54,9.38,0.67,14.94c0.06,3.83,0.1,9.58,0.1,17.24
			v7.18c0,3.83-0.13,9.38-0.38,16.66c0.57,0,1.63-0.06,3.16-0.19l4.02-0.1c1.02,0,1.85,0.26,2.49,0.77
			C109.5,81.15,109.75,81.72,109.75,82.49z"/>
		<path class="st6" d="M130.92,82.49c0,0.64-0.22,1.15-0.67,1.53c-0.26,0.25-0.59,0.46-1.01,0.62c-0.42,0.16-0.69,0.24-0.81,0.24
			c-1.53,0.25-3.42,0.38-5.65,0.38c-2.04,0.13-3.64,0.19-4.79,0.19c-0.26,0-1.09-0.06-2.49-0.19c-1.85-0.32-2.84-1.56-2.97-3.73
			c-0.06-0.83-0.13-1.8-0.19-2.92c-0.06-1.12-0.1-1.99-0.1-2.63c-0.26-10.09-0.38-17.56-0.38-22.41l0.19-18.48
			c0-1.02,0.03-1.76,0.1-2.2c0-3.38,0.13-6.38,0.38-9c0.19-1.4,0.29-2.14,0.29-2.2c0.32-1.28,1.15-2.14,2.49-2.59
			c0.19-0.06,0.51-0.1,0.96-0.1c1.72,0,2.9,0.93,3.54,2.78l0.29,2.49c0.32,4.41,0.54,9.38,0.67,14.94c0.06,3.83,0.1,9.58,0.1,17.24
			v7.18c0,3.83-0.13,9.38-0.38,16.66c0.57,0,1.63-0.06,3.16-0.19l4.02-0.1c1.02,0,1.85,0.26,2.49,0.77
			C130.66,81.15,130.92,81.72,130.92,82.49z"/>
		<path class="st6" d="M160.41,50.89c0,4.92-0.48,10.15-1.44,15.71c-0.96,4.09-1.95,7.22-2.97,9.38c-1.15,2.24-2.27,3.93-3.35,5.08
			c-2.62,3-5.62,4.5-9,4.5c-1.02,0-2.17-0.16-3.45-0.48c-2.3-0.57-4.31-2.11-6.03-4.6c-1.15-1.4-2.17-3.38-3.06-5.94
			c-1.6-4.4-2.52-9.32-2.78-14.75c-0.06-0.45-0.1-1.18-0.1-2.2c-0.19-8.11,0.61-15.71,2.39-22.79c1.15-3.51,2.27-6.32,3.35-8.43
			c0.25-0.38,0.75-1.1,1.48-2.15c0.73-1.05,1.48-1.93,2.25-2.63c2.3-1.98,4.85-2.97,7.66-2.97c3.7,0,6.61,1.69,8.71,5.08
			c1.92,2.94,3.35,6.35,4.31,10.25C159.74,39.11,160.41,44.76,160.41,50.89z M151.89,48.11c0-4.28-0.35-8.33-1.05-12.16
			c-0.45-2.81-1.18-5.39-2.2-7.76c-0.96-1.79-1.69-3-2.2-3.64c-0.19-0.13-0.4-0.3-0.62-0.53c-0.22-0.22-0.4-0.34-0.53-0.34
			c-0.13,0-0.51,0.32-1.15,0.96c-0.83,0.83-1.63,2.08-2.39,3.73c-1.09,2.24-1.98,4.98-2.68,8.24c-1.21,5.24-1.82,10.76-1.82,16.57
			c0,2.55,0.06,4.47,0.19,5.75c0.32,4.28,1.02,8.14,2.11,11.59c0.64,2.3,1.53,4.37,2.68,6.22c0.57,0.96,1.08,1.57,1.53,1.82
			c0.38-0.25,0.77-0.65,1.15-1.2c0.38-0.54,0.67-0.94,0.86-1.2c1.08-1.92,2.2-4.44,3.35-7.57
			C150.96,62.54,151.89,55.71,151.89,48.11z"/>
	</g>
</g>
</svg>
