<?xml version="1.0" encoding="utf-8"?>
<!-- Generator: Adobe Illustrator 24.2.3, SVG Export Plug-In . SVG Version: 6.00 Build 0)  -->
<svg version="1.1" id="Layer_1" xmlns="http://www.w3.org/2000/svg" xmlns:xlink="http://www.w3.org/1999/xlink" x="0px" y="0px"
	 viewBox="0 0 322.1 210.8" style="enable-background:new 0 0 322.1 210.8;" xml:space="preserve">
<style type="text/css">
	.st0{fill:#E5E5E5;}
	.st1{fill:#777575;}
	.st2{fill:#1E1C1B;}
</style>
<g>
	<path class="st0" d="M67.8,110.8c0.3-2,0.3-3.9,0.7-5.9c0.9-4.4,1.8-8.9,3.8-13c0.1-0.2,0.5-0.5,0.5-0.7C72.6,91,71.9,91,71.6,91
		c-0.7-0.1-0.6-1.1-1-0.4c-0.4,0.6-1.1,2.4-1.3,3.1c-0.4,1.7-0.7,3.3-1,4.9c-0.6,2.3-0.9,4.7-1.2,7.1c-0.1,1.1-0.4,3.4-0.5,4.5
		c-0.5,8-0.8,14.5-0.8,22.5c0,0.3-0.3,0.9-0.3,1.2c0,0,0,0,0,0c0,0.5,0,1,0,1.4c0,1.3,0.1,2.5,0.1,3.8c0.1,2.5,0.1,5.1,0.2,7.6
		c0.1,4.2,0.2,8.4,0.6,12.5c0.3,3.4,1.3,7.1,1.9,10.5c0.2,1.1,0.3,2,1.2,2.6c0.2,0.1,0,0.2,0.2,0.1c0.4-0.1,0.5-0.6,0.5-1.1
		c0-2.2-0.8-7.2-0.9-9.4c-0.3-5.8-1.3-9.3-1.5-15.4c0-0.9,0-1.7-0.1-2.6c-0.1-3-0.8-12.6-0.8-14.1c-0.2-3.6,0.2-6.7,0.3-10.3
		C67.3,116.7,67.4,113.8,67.8,110.8z"/>
	<path class="st0" d="M54.3,49.6c-1.4-2-4-3-6.3-2.1c-2.4,1-2.8,4.3-2,6.8c0.7,2.5,2.6,4.3,2.4,6.9c-0.1,1.8-1.5,4.3-0.9,6
		c0.4,1.2,1.9,2.1,1.8,3.4c-0.1,1-1.1,1.4-1.7,2.2c-1,1.4-1.8,3.6-2,5.3c-0.2,1.5,0.1,3.1,1.2,4c0.7,0.5,1.5,0.8,2.3,1.2
		c2.9,1.7,2.3,4.2,4.1,4.3c0.8,0.1,0.8-0.8,1.5-1.3c3.3-2.3,8-3.3,11.1-0.8c1,0.9,0.8,1.7,2.7,2.9c1.5,1,3.3,1.8,4.8,2.6
		c5.1,2.5,7.5,4,11.1,2.1c0.6,2.5,1.1,3.1-0.6,7.7c-0.1,0.4,0.1,0.1,0.3,0.5c0.2,0.5,0.7,1,1,1.1c2.1,1.2,1.1,3.2,2.4,4.1
		c1.2,0.8,2.8-0.4,4.2-0.6c2-0.3,3.7,0.4,6.7,0c0,0,1.6,1.9,3.6,2.2c1.9,0.3,3.7-0.5,3.9-0.9c1-2.1,2.9-4.1,1.9-6.1
		c-1.3-2.7-2.4-4.9-4.5-5.9c-1.1-0.6-2.4-1.1-3.4-1.9c-0.9-0.8-2.3-2-1.8-3.1c1.9,1.8,3.9,3.6,6.3,4.6c1.7,0.7,3.8,1.7,5.6,1.4
		c1.2-0.2,2.1-1.5,3.2-2c2.7-1.3,5.2-3.7,6-6.7c0.1-0.5,0.3-1,0.1-1.4c-1.4-4.6-2.7-3-3.1-3.6c-0.7-1.3,0.6,2.1,1-4.3
		c0-0.3-0.2-0.6-0.4-0.7c-0.2-0.1-0.5-0.1-0.6,0.1c-2.2,2-1.8,0.9-2.5,1.7c1.3-2.2-0.5-4.4-1.4-6.5c-0.4-0.8-0.3-1.6-0.8-2.4
		c3-2.5,3.6-3.1,3.6-3.5c0-2.6-0.1-3.9,0.9-5.7c0.5-1,0.5-2,0-2.9c-0.7-1.3-2.4-1.4-3.8-1.8c-1.4-0.4-2.2-2-4.1-2.1
		c-1.4-0.1-2.8-0.2-3.9,0.6c0.2-2,0.1-4.1-1.1-5.7c-1.2-1.6-3.7-2.3-5.2-0.9c-1-3-2.8-6-6.7-6.4c-3.2-0.3-3.9-1.7-9.4,0.6
		c-1.2-4.6-6.1-5.4-9.3-3.2c-0.8,0.6-1.5,1.3-2.3,1.9c-2.2,1.6-5.4,1.6-7.2,3.7c-1.5,1.6-0.3,4.4-1.3,6.4c-1.2,2.4-1.8,6.6-3,4.6
		C56.8,53.4,55.2,51,54.3,49.6z"/>
	<path class="st0" d="M36.7,101.5c0.5,0.4,0.6,1.1,1,1.6c0.9,1.1,1.6,2.4,1.8,3.8c0.2,1.3,0.3,2.9,0.5,4.2c0.1,1.2-0.2,2.2,0.1,3.4
		c0.3,1.1,1.3,2.1,1.6,3.2c0.5,1.5,0.4,2.6,0.6,4.2c0.4,3.4,1.2,6.4,3.5,9c2.6,2.9,7.3,5.6,10.9,7c1.1-3.3,0.7-7.1,1.1-10.6
		c0.1-1.1,0.4-1.9,0.4-3.1c0.1-2.5-1.3-4-1.7-5.9c-0.6-3-0.3-6.2-1.7-8.9c-0.5-1-1.2-1.8-2-2.7c-1.1-1.2-2.4-2.8-3.8-3.7
		c-1-0.7-1.8-0.8-2.9-1.3c-1.4-0.7-2.8-1.3-4.2-2c-1.3-0.6-2.6-1.2-3.9-1.8c-0.8-0.4-2.9-1.8-3.8-1.6C32.5,96.7,36,100.9,36.7,101.5
		z"/>
	<g>
		<g>
			<path class="st1" d="M69.4,172.7c-4.3-0.8-5.6-56.5-1.2-74.8c0-0.1,1.8-8,2.5-7.8c0.7,0.2-3.1,8.1-3.8,19.8
				c-1.6,23.7-0.2,62.3,3,62.3c1.1-0.1-1-3-2.7-38.1c-1.4-28.6,4.8-44.3,6.1-42.9c0.1,0.2-9.1,15.9-5,51.9c0.3,2.6-0.1-0.3,0.9,13.1
				C70,169.7,71.9,173.2,69.4,172.7z"/>
			<path class="st1" d="M66.1,148c-5.5-3.1-11.9-12.4-14.9-17.9c-5.7-10.6-4.2-20.4-11.3-28.4c-2.5-2.7-1.9-1.3-6.4-5.8
				c-0.5-0.5,0-0.8,0.3-0.5c9.8,10.6,8.5,2.9,14.1,24.3c2.5,9.4,11.1,23.6,18.6,27.9C66.6,147.7,66.4,148.2,66.1,148z"/>
			<path class="st1" d="M56.7,138.4c-0.9-0.4,0.9-10.3,1.1-12.1c0.5-3.8-1.3-7.3-1.5-7.9c-1.2-2.9,0.9-3.4-1.5-8.4
				c0,0.1-1-1.8-1.7-2.6c-6.2-6.9-4.3-4-10.3-6.8c-10.8-5.1-9.7-5-9.5-5.2c0.4-0.5,0.2,0.5,9.7,4.7c0.4,0.2,14.5,3.9,13.5,16.5
				c-0.1,1.8,1.5,3.2,1.8,6.4c0.3,2.9-1,10.3-0.9,9.8C56.7,136.8,57.5,138.7,56.7,138.4z"/>
			<path class="st1" d="M56.3,138c-3.4-2.1-13.2-3.5-14.3-16.7c-0.4-5.3-1.7-4.4-2.2-7.6c-0.2-1.6-0.3-7.7-1.4-9.5
				c-0.6-0.8-3.5-3.5-4.9-7.6c0.1,0.2-0.6-1.5,0.2-1.1c0.1,0.1,0,0,0.5,1.2c3.3,9.5,5.1,0.8,6.2,16.5c0,0,0,0,0,0c0,0,0,0,0,0
				c0,0,0,0,0,0c0.2,2.4,1.6,3,2.1,6.3c0.2,1.4-0.1,9.8,7.1,14.5c1.7,1.2,7.5,3.1,7.1,3.8C56.6,138,56.4,138.1,56.3,138z"/>
		</g>
		<g>
			<path class="st1" d="M94.2,61.4c-0.1-0.1,1.2-3.5,0.4-4.4c-1.1-1.1-3.8,0.4-5.3,0c-0.1,0-1.2-0.4-0.9-0.3
				c-1.2-0.3-2.2,0.2-2.2-0.3c0-0.6,2-0.3,2.9,0c2.4,0.8,7.4-2.6,6.2,3.5C95.1,60.5,94.7,62,94.2,61.4z"/>
			<path class="st1" d="M87.7,56.5c-0.2-0.5,3-2,3.1-2c1.4-0.6,3.3,0,2.6,1.9c-0.1,0.2-0.6,0.4-0.5-0.4c0,0.1,0.3-0.7-0.5-1
				C90,54.3,88,57.3,87.7,56.5z"/>
			<path class="st1" d="M90.8,55c-0.3,0-0.5-1.9-1-2.9c-0.5-0.8-1.3-1.3-1.9-1.3c-1.2,0-1.5,1.4-1.9,2c-0.6,1-1.8,1.3-2.3,1.6
				c-0.3,0.2-0.6-0.2-0.3-0.5c0.6-0.4,0.7-0.4,1-0.5c1.8-1,1.1-1.9,2.3-2.8C89.8,48.5,91.9,55,90.8,55z"/>
			<path class="st1" d="M99.4,57.1c-0.3-0.1,0-0.1-0.5-1.6c-0.4-1.1-1.4,0.1-2.2,0.5c-0.4,0.2-0.6,0.3-0.9,0.4
				c-0.5,0.3-0.7,0.7-1,0.3c-0.3-0.5,0.8-0.7,2.5-1.8C99.7,53.4,100.2,57.4,99.4,57.1z"/>
			<path class="st1" d="M98.1,55c-0.2-0.1-1.1-3.3-2.8-2.7c-0.5,0.2-2,2.1-2.4,2.5c-0.3,0.2-0.6-0.2-0.4-0.4
				c0.4-0.4,1.8-2.3,2.4-2.5C97.3,50.6,99.3,55.6,98.1,55z"/>
			<path class="st1" d="M95.6,51.7c-0.2-0.2-0.4-1.5-1.9-2.5c-3.5-2-3.9,1.6-5.3,1.3c-0.3-0.1-0.3-0.4-0.1-0.5
				c2.5-1.4,1.3-2.3,4.6-1.7C95.6,48.8,96.6,52.9,95.6,51.7z"/>
			<path class="st1" d="M85.6,51.7c-0.4-1.1-3.3-1.7-4.2-1.4c-0.5,0.2-0.8,0.7-1,0.3c-0.3-0.4,1-1,1.7-1
				C87.8,49.9,86,53.7,85.6,51.7z"/>
			<path class="st1" d="M87.2,50.8c-0.3-0.2,0.3-2.8-4.5-2.9c-0.9,0-1.1,0.9-1.5,2.2c-0.2,0.7-0.7,0.5-0.5-0.1
				c0.7-2.7,1.4-2.9,3.1-2.5c1.5,0.3,2.7,0.2,3.6,2.1C87.6,50.1,87.7,51.1,87.2,50.8z"/>
			<path class="st1" d="M89.1,49.7c-0.2-0.1-0.1-0.3-0.1-0.4c0.1-0.6-1.4-2.8-2.7-3c-3-0.4-4.2-3-6.8-1.2c-0.4,0.3-1.1-0.7,1.3-1.1
				c2.6-0.4,2.7,1.3,5.1,1.7C89.1,46.1,90.3,50.3,89.1,49.7z"/>
			<path class="st1" d="M92.9,45.6c-2.6-2.5-6-0.4-7.4-0.2c-0.1,0-1.2,0.1-1.2,0.1c-0.3,0.1-0.5-0.4-0.2-0.5c0.1,0,0.3,0,0.2,0
				c3.7-0.4,3.7-1.3,5.8-1c2.1,0.4,3.5,0.8,3.8,2.5c0.2,1.2,1,2.6,0.5,2.9C93.5,49.8,93.4,46.2,92.9,45.6z"/>
			<path class="st1" d="M101.4,56.1c-0.5-0.1,0.1-0.9,0.3-2.9c0.1-2.1-1-2.4-1.7-2.6c-0.6-0.2-3.6-0.5-4.3-0.3
				c-0.3,0.1-0.7,0.3-0.8-0.1c-0.3-1,4.5-0.3,5.1-0.2C103.6,51,101.8,56.2,101.4,56.1z"/>
			<path class="st1" d="M89.9,83.3c-3.4-0.4,9.5-1,11.4-4.9c2-4.3-0.4-4.2-1.1-7c-0.7-2.8,0-3.8-0.7-5.9c-2.2-5.7-10.4-3.4-12.4-5
				c-1.4-1.2-0.8-2.6-1.3-4c-0.3-0.6-2-1-3.7-3.5c-0.2-0.4-0.6-1.4-1.6-1.7c-2.9-0.9-6.5,2.5-6.6,1.5c0-0.3,1.7-1,1.6-1
				c6.2-3.3,6.7,1,8.5,2.6c2.3,2,2.1,0.8,2.6,3.2c0.1,0.6-0.1,1.9,1,2.6c2.1,1.3,8.1-0.5,11.3,3.4c2.5,3,0.9,4.3,2,8.1
				c0.6,2.2,2.4,2.1,1.5,5.5c-0.7,2.6-1.3,3.5-7.4,5.3C93.8,82.7,90.4,83.3,89.9,83.3z"/>
			<path class="st1" d="M68.9,70c-2.2-5,4.7-15.7,4.7-17.6c0,0,0,0,0,0c0,0,0,0,0,0c0.1-2.8-1.5-1.6-0.4-6.3
				c0.2-0.7,1.2-3.7-0.6-3.7c-13.2-0.2-9.8,7.3-11.2,10.4c-0.1,0.2-2.1,4.3-2.4,4.2c-0.7-0.3,1.5-3,2.1-4.9C62,48.8,59.3,42,72,41.7
				c2.6-0.1,2.4,1.7,1.9,4.1c-1,4.1-0.3,3.4,0.2,5.3c0.6,2.3-1.4,5.1-1.4,5.1c-6.2,13.3-2.2,13.4-3.4,13.9
				C69.2,70.2,69,70.1,68.9,70z"/>
			<path class="st1" d="M81,49c-2-3.8-1.5-3.9-3-3.7c-1.7,0.3-3.3,1.6-4.4,1.8c-0.4,0.1-0.5-0.5-0.1-0.5c5-1.7,5.2-4.2,8,2
				C81.7,49.1,81.1,49.3,81,49z"/>
			<path class="st1" d="M80.3,44.3c-1.3-2.4-2.7-4.5-5.1-2.6c0.2-0.2-1.1,1-1.2,1c-0.3,0.3-0.6-0.1-0.4-0.4
				C79.1,36.1,81.5,46.5,80.3,44.3z"/>
			<path class="st1" d="M110.7,70.1c-0.7-0.4,2.2-3,0.7-5.9c-1.1-2-0.8-4.9-2.8-6.2c-1.7-1-2.6,0.1-4.4-0.6c-0.7-0.3-1.2-1.2-2-1.3
				c-0.8-0.1-5.3,2.9-6.7,5.2c-0.2,0.4-2.4,0.5,4-4.5c0,0,0,0,0,0c0,0,0,0,0,0c4-3,3.4,0.2,5.9,0.3c1.4,0,2.8-0.5,4,0.9
				c1,1.2,1.5,2.4,1.6,3.1c0.6,3.6,2.4,4.2,0.2,8.4C111.1,69.8,111,70.3,110.7,70.1z"/>
			<path class="st1" d="M98.2,89.2c-4.2-0.1-2.8-0.8-2.6-0.7c1.2,0.3,10.7,0.2,12.2-0.1c2.9-0.8,7.9-5.4,8.5-6.5
				c0.9-1.5,0.5-2.5,0.4-3.2c0-0.1,0-1.5,0-1.5c-0.6,0-1.1,1.7-3.3,3.1c-2.8,1.7-3.9,3.4-4.3,2.9c-0.4-0.4,3.1-2.9,3.7-3.2
				c3.2-2,4-5.8,4.5-1.3c0.3,2.2,0.7,3.2-3.8,6.7C109.3,88.8,109.5,89.5,98.2,89.2z"/>
			<path class="st1" d="M113.1,80.3c-0.7-0.2,0.4-0.3,0.8-2.8c0.2-1.3-0.4-1.9-1.2-3.3c-2.1-3.8-1.3-3.2-2-3.8
				c0.5,0.4-2.9-3.2-7-0.3c-0.7,0.6-1.1,0.9-2.3,2.2c-0.6,0.6-1.8,0.6,1.3-2.1c3.9-3.5,8.4-1,8.9,0.5c0.2,0.8,0.5,1.7,1.1,2.5
				C115.9,77.6,113.6,80.5,113.1,80.3z"/>
			<path class="st1" d="M111.1,70.9c-0.5-0.3,2-1.6,3.3-3.6c0.9-1.4-0.2-2.4,0.2-3.9c0.4-1.2,2.7-3.5,0.7-5.4c-1-0.9-2.7-0.7-6.2-3
				c-1.7-1-7.4,0.7-7.4,0.1c-0.1-0.4,0.4-0.3,1.8-0.6c6-1,5.2-0.2,7.7,1.1c3.5,1.7,4,1.2,5,2.5c1.7,2.3-1.2,4.3-1.1,6.4
				c0.1,1.6,0.7,2.1-1,3.9C113.8,68.9,111.5,71.3,111.1,70.9z"/>
			<path class="st1" d="M103.8,54.6c-0.6-3.6,0.6-5.6-3.4-6.3c-1.1-0.2-1.3-0.4-2.3,0.1c-3.1,2.5-3,1.3-2.7,1.1
				c3.5-2,2.4-2.4,5.9-1.6C105.7,48.9,104.2,56.9,103.8,54.6z"/>
			<path class="st1" d="M97.5,48.5c-0.3-0.7,0-0.4-1.3-2.3c-3.5-5.2-2.8-2.7-7.9-4.3c-1.6-0.5-2.1-0.6-6.2,0.7
				c-0.4,0.1-0.6-0.4-0.1-0.5c-0.1,0,0.1,0,1.9-0.6c4.3-1.4,4,0.3,7.2,0.4c2.9,0.1,3.2,0.8,4.8,2.8C99,48.8,97.7,49.1,97.5,48.5z"/>
			<path class="st1" d="M81.9,44.3c-0.6-0.4,0.3-1-2-4.2c-1.7-2.4-6.7-1.6-7.5-0.7c-1.8,2.1-7.1,4.6-1.6,0.7c2.4-1.7,0.8-1.8,4.2-2
				c1.7-0.1,3.9-0.5,5.5,2C82.3,42.6,82.8,45,81.9,44.3z"/>
			<path class="st1" d="M74.9,92.3c-1.8-1-6.9-1.3-10.4-7.3c-1.1-1.9-2.3-2.3-3.6-4.2c-2.2-3.4-2.2-7.1-2.2-7
				c-0.4-1.2-2.6-5.2-1.5-6.5c1.4-1.7,3.7,0.8,5.1,0.8c7.4,0.7,13,5.8,7.5,2.8c-4.8-2.6-7.1-1.6-10.1-3.4c-4.5-2.4-0.7,5.3-0.5,5.9
				c0.4,1.3,0.3,5.6,3.5,8.6c3.9,3.7,3,6.6,11,9.1c3.1,1,5.2,4.1,9.4,2.5c3.2-1.2,11.5-8.8,9.9-6.4c0,0.1-5.3,4.2-7.1,5.5
				C80.8,96.3,78.3,94.2,74.9,92.3z"/>
			<path class="st1" d="M76.5,80.9c-0.5-2.6,0.8-4-2.2-6.8c0.1,0.1-3.3-2.6-3.3-2.6c-0.3-0.3,0.2-0.7,0.4-0.4
				c1.1,1.4,5.3,2.3,5.5,7.5c0,0.5-0.1,1.2,0.1,2.1C77.1,81.2,76.6,81.3,76.5,80.9z"/>
			<path class="st1" d="M92.4,87.2c0-0.5-0.5-0.4-2.6-3.8c-2.9-4.7-8-4.9-9-5.3c-3.1-1.3-3.3,0.6-4,0.6c-1,0,0.7-1.6,2.4-1.6
				c0.7,0,8,1.4,11,5.8c0,0.1,3.1,4.7,2.7,3.9C93.2,87.5,92.5,87.6,92.4,87.2z"/>
			<path class="st1" d="M101.2,108.5c-1.8-0.5-1.9-2.6-4.6-2c-3.1,0.7-3.1-0.9-5.9,0c-1.6,0.6-1.9,1-2.9,0.7
				c-2.6-0.9-0.9-2.3-2.2-3.6c-3.2-2.6-2.2-3.1-1.7-4.4c0.8-1.9,1.2-3.6,0.1-5.3c-0.5-0.7,0.1-0.7,0.3-0.5c1.4,1.6,1,4.6,0,6.4
				c-1.5,2.5,2.5,2.7,2.5,5.3c0,1.1,1.2,1.9,2.1,1.6c5.2-1.9,4.7,0,6.9-0.5c-0.1,0,1.8-0.5,2.8-0.1c1.2,0.6,1.6,1.4,2.5,1.9
				c0.9,0.4,3.8-0.3,4.1-0.4c0.8-0.4,1-1.5,1.1-1.8c0.7-2.5,2.7-0.8,0.4-5.7c-2.7-5.2-7.6-5.2-10.3-9.4c-2.2-3.3-4.4-2.8-4.1-3.6
				c0.2-0.5,2.8,0.7,4.6,3.3c1.3,2,3.9,3.5,3.5,3.3c5,3.1,2.1,0.5,5.8,4.7c-0.1-0.1,0.7,0.7,1.1,1.4c0.3,0.6,0.4,1.2,0.6,1.8
				c1.2,3.3,0,2-1,4.3c-0.2,0.4,0,0.8-0.8,1.6C105.4,108.3,102.2,108.8,101.2,108.5z"/>
			<path class="st1" d="M102.3,94c-5-2.1-6.1-6.4-4.8-4.9c4.2,5.2,10.4,7.4,12.4,7c1.5-0.3,2.9-2.1,5.2-3.2c2.5-1.2,6.8-7,1.4-9.9
				c-3.6-1.9,8.4,0.6,0.8,8.9c-1.6,1.8-1.4,0.7-4.9,3.4C108.5,98.2,107,96,102.3,94z"/>
			<path class="st1" d="M49.1,71c-0.1-0.1-1.6-3-1.9-3.9c-0.7-2.6,0.7-4,0.9-5.5c0.3-3.5-5.9-9.2-0.5-13.9c4.5-4,8.9,5.6,13.5,11.5
				c-0.1-0.1,3,3,3.1,5.9c0,0.6,0.1,1,0.1,0.9c0.4,2.8-0.7,3-0.7,2.5c0-0.1,0.6-2-0.1-4.5c-0.6-1.9-2.3-3.5-3.6-5.4
				c-5.4-7.8-7.8-12.3-11.1-11c-6.1,2.8-0.3,11.1-0.2,12.8c0.2,2.7-0.9,2.9-1,5.1c-0.1,1.8,1.8,5.1,1.8,5.1
				C49.7,70.9,49.3,71.3,49.1,71z"/>
			<path class="st1" d="M52.4,88.2c-0.9-0.6-1.6-2.7-1.8-3.1c-0.8-1-3.8-2-4.9-4c-1-1.9,0.5-6.8,1.4-8.3c1.4-2.3,2.3-2.5,5.9-2.9
				c4.4-0.5,5.8,1.2,4.7,1.1c-1.3-0.2-2.6-1.4-7.5-0.1c-3.3,1-4.1,6.5-4.1,6.4c-1.5,5.8,3.9,5.3,5.2,8c2.2,5.2,2.2,0.6,5-0.5
				c1.8-0.7,5.9-0.9,7.4-0.7c2,0.2,1.4,1.2,1,0.9c-1.2-0.8-6.6-0.4-8.4,0.4c-0.4,0.2-0.5,0.3-0.5,0.3C54.6,86.6,53.7,89,52.4,88.2z"
				/>
		</g>
	</g>
</g>
<g>
	<g>
		<g>
			<path class="st2" d="M258.3,115.4c0-7.7,0-15.5,0-23.2c0-2.3,0.3-2.6,2.5-2.6c5.4,0.1,10.8-0.1,16.1,0.4
				c7.2,0.6,15.2,6.1,17.4,14.3c1.9,7-0.9,14.3-7.2,19c-1,0.8-2.2,1.4-3.4,2c-1.9,1-2.1,1.5-1,3.3c2.1,3.3,4.2,6.7,6.3,10
				c0.4,0.7,1.5,1.5,0.3,2.4c-0.9,0.7-2.7,0.3-3.3-0.8c-1.8-2.8-3.5-5.5-5.3-8.3c-0.7-1.1-1.3-2.3-2.1-3.3c-0.5-0.6-1.4-1.1-2.1-1.1
				c-4-0.1-7.9,0.1-11.9,0.1c-2.4,0-2.5,0.2-2.5,2.5c0,2.9,0,5.9,0,8.8c0,1.7-0.5,2.2-2,2.2c-1.4,0-1.9-0.5-1.9-2.3
				C258.3,131.1,258.3,123.2,258.3,115.4z M269.4,92.9c-1.9,0-3.8,0.1-5.6,0c-1.2-0.1-1.6,0.4-1.6,1.6c0,9.3,0,18.7,0,28
				c0,1.4,0.6,2,2,2c3.3,0,6.6,0.1,9.9-0.1c3.5-0.1,6.8-1,9.8-3c6.7-4.6,8.2-9.3,7-16.1c-1-5.6-5.1-9.2-10.5-11.2
				C276.8,92.7,273.1,92.8,269.4,92.9z"/>
			<path class="st2" d="M245,103.3c-0.5-3.8-2-7-4.5-9.8c-5.4-6-14-7.1-20.4-2.4c-5,3.6-7.5,8.6-7.6,15l0,0.1c0.1,0.5,0.1,1,0.2,1.6
				c0.1,1.2,0.2,2.4,0.6,3.6c0.8,3.2,2.6,6,5.1,8.4c2.9,2.8,6.8,4.3,10.6,4.3c3.5,0,7-1.2,9.7-3.6C243.8,115.9,246,110.1,245,103.3z
				 M228.7,91.5c0.1,0,0.2,0,0.3,0c5.1,0.2,8.8,2.7,11.3,7.9c1.3,2.7,1.7,5.7,1.2,8.9c-0.8,5.2-3.3,8.8-7.6,11.1
				c-4.3,2.2-9.6,1.3-13.3-2.4c-2.2-2.2-3.5-4.7-4.1-7.6c-1.2-6.3,0.9-12.2,5.7-15.8C224.1,92.3,226.3,91.5,228.7,91.5z"/>
			<path class="st2" d="M124.8,89.6c1.4-0.3,2.2,0.5,2.7,1.8c3.3,8.2,6.7,16.5,10,24.7c3.1,7.6,6.2,15.2,9.3,22.9
				c0.3,0.7,0.6,1.7-0.5,2c-1.1,0.3-2.3,0.6-2.9-0.8c-1.1-2.4-2.1-4.9-3-7.4c-0.5-1.5-1.4-2.1-3-2.1c-8.4,0.1-16.9,0.1-25.3,0
				c-1.5,0-2.3,0.6-2.8,1.9c-1,2.5-2,4.9-3.1,7.4c-0.4,1.1-1.8,1.5-2.9,1c-1.2-0.6-0.7-1.5-0.4-2.3c4-9.8,7.9-19.6,11.9-29.4
				c2.5-6.1,4.9-12.2,7.4-18.3C122.6,89.8,123.6,89.5,124.8,89.6z M124.6,127.5c3.6,0,7.2,0,10.8,0c1.8,0,2.3-0.8,1.6-2.5
				c-3.6-8.9-7.2-17.9-10.9-26.8c-0.2-0.6-1-1.4-1.5-1.4c-0.5,0-1.2,0.8-1.5,1.4c-1.4,3.3-2.7,6.6-4.1,9.9
				c-2.3,5.6-4.6,11.2-6.8,16.9c-0.7,1.8-0.2,2.5,1.8,2.5C117.6,127.5,121.1,127.5,124.6,127.5z"/>
			<path class="st2" d="M166.1,130.5c0-3.2,0.2-6.4-0.1-9.5c-0.1-1.6-0.7-3.4-1.6-4.8c-4.7-7.8-9.6-15.4-14.4-23.1
				c-0.1-0.2-0.3-0.3-0.3-0.5c-0.3-0.9-1.6-1.7-0.3-2.6c0.9-0.7,2.9-0.1,3.6,0.9c4.1,6.5,8.1,13,12.2,19.5c0.6,0.9,1.2,1.9,1.8,2.8
				c0.9,1.4,1.6,1.4,2.4,0c2.7-4.3,5.4-8.6,8.1-13c1.9-3.1,3.9-6.1,5.7-9.3c0.6-1,1.3-1.3,2.4-1.3c1.8,0.1,2.2,0.8,1.3,2.3
				c-1.8,2.9-3.6,5.8-5.4,8.7c-3.3,5.3-6.6,10.6-9.9,15.9c-0.9,1.5-1.4,3.1-1.4,4.9c0.1,5.9,0,11.7,0,17.6c0,1.8-0.4,2.3-2,2.3
				c-1.5,0-1.9-0.5-1.9-2.3c0-2.9,0-5.8,0-8.6C166.1,130.5,166.1,130.5,166.1,130.5z"/>
			<path class="st2" d="M78.8,117c0-7.2,0-14.5,0-21.7c0-2.2-0.2-2.4-2.5-2.4c-4.6,0-9.2,0-13.9,0c-1.1,0-2-0.1-2-1.6
				c0-1.5,0.9-1.6,2-1.6c12.2,0,24.5,0,36.7,0c1,0,1.9,0.1,2,1.5c0.1,1.4-0.6,1.7-1.8,1.7c-4.6,0-9.2,0-13.9,0
				c-2.5,0-2.7,0.2-2.7,2.6c0,14.4,0,28.8,0,43.2c0,2-0.4,2.6-1.9,2.6c-1.6,0-2.1-0.5-2.1-2.1c0-4.2,0-8.5,0-12.7
				C78.8,123.4,78.8,120.2,78.8,117z"/>
			<path class="st2" d="M194.3,90c1.2,0,2,0,3.1,0c0,1,0,1.8,0,2.6c0,13.2,0,26.4,0,39.6c0,4,0.4,4.6,4.4,5.5
				c7.5,1.9,15,2.9,22.6,0.5c2.6-0.8,5-2,7.4-3.3c1.6-0.9,2.6-0.9,3.5,1c-3.6,2.6-7.6,4.2-11.9,5.3c-8.1,1.9-16,0.6-23.9-1.5
				c-5.1-1.4-5.1-1.4-5.1-6.7c0-13.5,0-27,0-40.4C194.3,91.9,194.3,91,194.3,90z"/>
		</g>
	</g>
	<g>
		<path class="st2" d="M162.6,168.9c0.2-0.2,0.3-0.4,0.4-0.5c1.8-3.9,3.5-7.8,5.3-11.7c0.2-0.4,0.2-1,0.8-1c0.6,0,0.6,0.5,0.8,0.9
			c1.7,3.9,3.3,7.8,5,11.6c0.1,0.2,0.2,0.3,0.4,0.6c0.3-1.2,0.6-2.2,0.9-3.2c0.4-1.4,0.8-2.8,1.2-4.2c0.4-1.4,0.7-2.7,1.1-4.1
			c0.4-1.4,0.8-2.8,1.2-4.2c0.1-0.5,0.3-1,0.4-1.4c0.1-0.7,0.4-0.9,1-0.8c0.6,0,0.7,0.3,0.6,0.9c-0.4,1.4-0.8,2.8-1.1,4.2
			c-0.4,1.4-0.8,2.8-1.2,4.1c-0.4,1.3-0.7,2.7-1.1,4c-0.4,1.4-0.8,2.8-1.2,4.3c-0.3,1-0.6,2-0.8,3.1c-0.1,0.4-0.2,0.8-0.7,0.7
			c-0.3,0-0.6-0.3-0.8-0.6c-0.7-1.4-1.2-2.9-1.8-4.3c-1.2-2.8-2.4-5.6-3.7-8.6c-0.2,0.2-0.3,0.3-0.4,0.5c-1.9,4.1-3.7,8.2-5.5,12.3
			c-0.2,0.4-0.3,0.8-0.9,0.7c-0.5-0.1-0.5-0.5-0.6-0.9c-0.4-1.5-0.8-2.9-1.2-4.4c-0.4-1.4-0.7-2.9-1.1-4.3c-0.4-1.5-0.8-2.9-1.2-4.4
			c-0.3-1-0.5-2-0.8-3.1c-0.3-1.1-0.5-2.3-0.8-3.4c-0.1-0.4-0.1-0.7,0.3-0.8c0.6-0.2,1.1,0,1.2,0.5c0.4,1.7,0.9,3.5,1.3,5.3
			c0.4,1.4,0.8,2.9,1.2,4.3c0.4,1.4,0.7,2.9,1.1,4.3C162,166.5,162.2,167.6,162.6,168.9z"/>
		<path class="st2" d="M150.6,169c0-0.3,0-0.5,0-0.8c0-5.4,0-10.9,0-16.3c0-0.4,0-0.8,0.5-0.9c0.7-0.1,1,0.1,1,0.8
			c0,6.6,0,13.1,0,19.7c0,0.3,0.1,0.8-0.4,0.8c-0.3,0-0.8-0.1-1-0.3c-0.8-0.9-1.6-2-2.3-3c-3.5-4.6-7.1-9.2-10.6-13.7
			c-0.3-0.4-0.6-0.8-0.9-1.2c-0.1,0-0.1,0-0.2,0c0,0.2,0,0.5,0,0.7c0,5.5,0,11.1,0,16.6c0,0.5-0.1,0.9-0.7,0.9
			c-0.6,0-0.8-0.2-0.8-0.8c0-6.6,0-13.2,0-19.9c0-0.2,0.2-0.6,0.3-0.6c0.4,0,0.9,0,1.1,0.3c0.8,0.9,1.6,2,2.3,3
			c3.7,4.8,7.4,9.7,11.2,14.5c0.1,0.1,0.2,0.3,0.3,0.4C150.5,169.1,150.5,169,150.6,169z"/>
		<path class="st2" d="M89.8,161.6c0-3.2,0-6.4,0-9.5c0-0.9,0.1-1,1.1-1c2,0,4-0.1,5.9,0c2.8,0.1,5.4,0.9,7.4,3
			c1.4,1.4,2.2,3.2,2.5,5.1c0.1,1.2,0.3,2.3,0.2,3.5c-0.3,4.3-2.6,8.1-7.8,9.2c-0.9,0.2-1.9,0.3-2.9,0.3c-1.8,0.1-3.6,0-5.4,0
			c-0.8,0-1-0.2-1-1C89.8,168,89.8,164.8,89.8,161.6z M91.4,161.6c0,2.8,0,5.6,0,8.4c0,0.8,0.1,1,1,1c1.3,0,2.7,0.1,4,0
			c1.2-0.1,2.4-0.2,3.5-0.6c4.1-1.4,5.3-4.5,5.5-7.8c0.1-0.9-0.1-1.9-0.2-2.9c-0.1-1.4-0.6-2.6-1.4-3.8c-1.4-2.1-3.6-3-6-3.2
			c-1.7-0.2-3.5-0.1-5.3-0.2c-1,0-1.1,0.1-1.1,1.1C91.4,156.2,91.4,158.9,91.4,161.6z"/>
		<path class="st2" d="M210,161.6c0-3.2,0-6.4,0-9.6c0-1,0.1-1.1,1.1-1.1c2.2,0,4.4,0,6.6,0.1c3.1,0.2,6.4,2.9,7.2,5.9
			c0.8,2.8-0.3,5.9-2.9,7.9c-0.5,0.4-1,0.6-1.6,0.9c-0.6,0.3-0.7,0.6-0.3,1.2c0.8,1.3,1.6,2.6,2.5,3.9c0.1,0.1,0.1,0.2,0.2,0.3
			c0.2,0.3,0.6,0.6,0.1,1c-0.4,0.3-1.1,0.1-1.3-0.3c-0.9-1.4-1.8-2.7-2.6-4.1c-0.5-0.9-1.1-1.3-2.2-1.2c-1.3,0.2-2.7,0-4.1,0.1
			c-0.9,0-1,0.1-1,1c0,1.2,0,2.4,0,3.6c0,0.7-0.2,1-0.8,1c-0.6,0-0.7-0.2-0.7-1C210,168,210,164.8,210,161.6z M211.6,158.7
			c0,1.9,0,3.9,0,5.8c0,0.7,0.1,0.9,0.8,0.9c1.3,0,2.7,0,4,0c1.9-0.1,3.6-0.7,5.1-2c2.3-1.9,2.7-5.6,1-7.9c-1.4-1.9-3.3-2.9-5.7-3.1
			c-1.5-0.1-3.1,0-4.6-0.1c-0.6,0-0.7,0.2-0.7,0.7C211.6,154.9,211.6,156.8,211.6,158.7z"/>
		<path class="st2" d="M185.8,161.7c0-3.9,1.6-7,4.6-9.3c3.9-2.9,9.3-2.3,12.6,1.4c1.6,1.7,2.5,3.8,2.8,6.1
			c0.6,4.3-0.7,7.9-3.9,10.7c-3.6,3.1-9,2.9-12.5-0.4c-1.5-1.5-2.7-3.2-3.2-5.3C186,163.9,185.9,162.8,185.8,161.7z M187.3,162.7
			c-0.1,1.6,1,4.1,2.4,5.7c2.7,3.1,6.9,4,10.2,1.9c4-2.5,5.2-7,4.3-11c-0.5-2.2-1.7-4.1-3.4-5.6c-2.4-2-6-2.4-8.6-0.8
			C188.9,154.9,187.4,157.9,187.3,162.7z"/>
		<path class="st2" d="M248,161.6c0-3.2,0-6.5,0-9.7c0-0.5,0.1-0.9,0.7-0.9c0.7,0,0.8,0.1,0.8,0.8c0,3.1,0,6.2,0,9.4
			c0,1.1,0.2,1.2,1.2,1.2c4,0,7.9,0,11.9,0c1,0,1-0.1,1-1c0-3.1,0-6.3,0-9.4c0-0.7,0.2-0.9,0.8-0.9c0.5,0,0.7,0.2,0.7,0.7
			c0,0.5,0,1,0,1.5c0,6,0,12.1,0,18.1c0,0.8-0.2,1-0.9,1c-0.5,0-0.7-0.3-0.7-0.8c0-2.3,0-4.6,0-6.8c0-0.8-0.1-0.9-0.9-0.9
			c-4.1,0-8.1,0-12.2,0c-0.8,0-1,0.2-1,1c0,2.2,0,4.4,0,6.7c0,0.5,0,0.9-0.7,0.9c-0.6,0-0.8-0.2-0.8-0.9
			C248,168.1,248,164.8,248,161.6z"/>
		<path class="st2" d="M128.9,158.4c0,1.9,0,3.8,0,5.7c0.1,3.7-2.7,6.7-5.4,7.7c-4.4,1.7-9.1,0.1-11.4-4.2c-0.6-1.1-0.8-2.2-0.9-3.4
			c0-4.1,0-8.3,0-12.4c0-0.7,0.6-1.1,1.2-0.8c0.1,0.1,0.2,0.2,0.2,0.4c0,0.2,0,0.4,0,0.6c0,3.9,0,7.7,0,11.6c0,1.5,0.3,3,1.3,4.3
			c1.7,2.3,3.9,3.4,6.8,3.2c2.9-0.3,5-1.9,6.1-4.6c0.3-0.8,0.5-1.7,0.5-2.5c0-4,0-8.1,0-12.1c0-0.6,0.2-0.8,0.8-0.8
			c0.5,0,0.7,0.2,0.7,0.8C128.9,153.9,128.9,156.2,128.9,158.4C128.9,158.4,128.9,158.4,128.9,158.4z"/>
		<path class="st2" d="M235.2,162.3c0-3,0-6,0-9c0-0.9-0.1-1-1-1c-1.9,0-3.8,0-5.7,0c-0.4,0-0.9,0-0.9-0.6c0-0.6,0.4-0.7,0.9-0.7
			c5,0,10.1,0,15.1,0c0.4,0,0.8,0,0.9,0.6c0,0.5-0.2,0.8-0.7,0.8c-1.7,0-3.5,0-5.2,0c-0.2,0-0.3,0-0.5,0c-1.1,0-1.1,0.1-1.1,1.1
			c0,5.9,0,11.9,0,17.8c0,0.9-0.2,1.1-0.8,1.1c-0.6,0-0.8-0.2-0.8-0.9c0-2.9,0-5.7,0-8.6C235.2,162.7,235.2,162.5,235.2,162.3z"/>
	</g>
</g>
</svg>
