<?xml version="1.0" encoding="utf-8"?>
<!-- Generator: Adobe Illustrator 23.1.1, SVG Export Plug-In . SVG Version: 6.00 Build 0)  -->
<svg version="1.1" id="Layer_1" xmlns="http://www.w3.org/2000/svg" xmlns:xlink="http://www.w3.org/1999/xlink" x="0px" y="0px"
	 viewBox="0 0 135.54 74.4" style="enable-background:new 0 0 135.54 74.4;" xml:space="preserve">
<style type="text/css">
	.st0{fill:#192526;}
</style>
<g>
	<path class="st0" d="M18.13,54.31c0,2.36-0.5,4.96-1.51,7.81c-1.18,3.22-3.08,6.22-5.69,9.01c-0.66,0.69-1.52,1.44-2.59,2.24
		c-0.81,0.57-1.57,0.86-2.29,0.86c-0.69,0-1.18-0.2-1.47-0.6c-0.29-0.4-0.47-1.03-0.54-1.88c-0.07-0.85-0.11-2.31-0.11-4.38
		l0.04-6.3V59.4c0-1.35-0.01-2.37-0.04-3.06L3.9,53.02c0-1.38,0.04-2.77,0.13-4.18c0.09-1.41,0.26-2.46,0.52-3.17
		c0.26-0.7,0.7-1.2,1.32-1.49c0.62-0.29,1.54-0.43,2.78-0.43c0.6,0,1.09,0.01,1.47,0.04c0.4,0.03,0.98,0.13,1.72,0.3
		c1.93,0.6,3.46,1.81,4.61,3.62c0.83,1.35,1.37,3.03,1.6,5.05C18.1,53.45,18.13,53.96,18.13,54.31z M13.64,54.4
		c0-0.63-0.01-1.11-0.04-1.42c-0.09-1.26-0.35-2.36-0.78-3.28c-0.43-1.12-0.92-1.91-1.47-2.37c-0.81-0.72-1.7-1.08-2.67-1.08
		c-0.4,0-0.79,0.07-1.16,0.22c0.06,0.03,0.15,0.42,0.28,1.16c0.13,0.75,0.21,1.28,0.24,1.6c0.11,4.03,0.17,6.96,0.17,8.8v1.38v1.38
		c0,4.43-0.07,7.24-0.22,8.45c0.17-0.2,0.33-0.38,0.47-0.54c0.14-0.16,0.24-0.28,0.3-0.37c1.41-1.9,2.63-4.3,3.67-7.2
		C13.24,58.82,13.64,56.58,13.64,54.4z"/>
	<path class="st0" d="M26.06,69.68l0.04-0.11c0.4-0.85,0.76-1.85,1.08-3.01c0.55-2.12,0.99-4.37,1.34-6.77
		c0.52-3.74,0.83-7.74,0.95-12.01c0.03-0.71,0.04-1.69,0.04-2.96c0-1.97-0.06-3.67-0.17-5.08c0-0.81,0.24-1.32,0.73-1.53
		C30.3,38.07,30.6,38,30.98,38h0.3c0.4,0.18,0.69,0.38,0.86,0.61c0.17,0.23,0.29,0.59,0.35,1.08c0.46,3.74,0.69,7.56,0.69,11.48
		c0,1.94-0.03,3.4-0.09,4.39c-0.2,3.35-0.47,6.08-0.82,8.2c-0.43,2.22-0.86,3.95-1.29,5.18c-0.26,0.92-0.62,1.78-1.08,2.59
		c-0.98,1.8-2.24,2.7-3.79,2.7c-0.49,0-0.95-0.07-1.38-0.21c-0.98-0.32-1.77-1.08-2.37-2.27c-0.52-1.06-0.89-2.01-1.12-2.86
		c-0.52-1.76-0.93-3.95-1.25-6.56c-0.32-2.61-0.47-5.62-0.47-9.05c0-1.41,0.01-2.49,0.04-3.23c0.09-2.93,0.33-5.73,0.73-8.41
		c0.09-0.78,0.23-1.46,0.43-2.06c0.14-0.53,0.36-0.93,0.65-1.22c0.29-0.28,0.62-0.42,0.99-0.42c0.2,0,0.43,0.05,0.69,0.16
		c0.29,0.14,0.52,0.36,0.69,0.66c0.17,0.3,0.26,0.64,0.26,1.03c0,0.88-0.01,1.52-0.04,1.9c-0.2,2.5-0.3,5.29-0.3,8.36
		c0,1.02,0.03,2.59,0.09,4.71c0.2,4.41,0.6,8.09,1.21,11.06c0.26,1.27,0.55,2.33,0.86,3.17L26.06,69.68z"/>
	<path class="st0" d="M38.48,54.01l0.04,5.56v2.11v5.13c0,3.59-0.12,5.71-0.35,6.34c-0.2,0.46-0.55,0.78-1.03,0.95
		c-0.23,0.09-0.46,0.13-0.69,0.13l-0.43-0.04c-0.32-0.06-0.58-0.19-0.8-0.41c-0.22-0.22-0.35-0.5-0.41-0.84
		c-0.17-1.01-0.26-3.9-0.26-8.67c0-4.31,0.06-7.73,0.17-10.26l0.04-1.85c0-2.96,0.06-4.84,0.17-5.65c0-0.09,0.01-0.24,0.04-0.45
		c0.03-0.22,0.07-0.42,0.13-0.63c0.11-0.35,0.3-0.61,0.56-0.8c0.26-0.19,0.56-0.28,0.91-0.28c0.4,0,0.75,0.1,1.04,0.3
		c0.29,0.2,0.6,0.49,0.95,0.86c0.26,0.37,0.49,0.76,0.69,1.16l1.38,3.36c1.61,3.82,3.35,8.34,5.22,13.54
		c-0.03-0.75-0.02-1.67,0.02-2.78c0.04-1.11,0.08-1.9,0.11-2.39c0.06-0.86,0.09-1.41,0.09-1.64l0.04-2.29
		c0.11-5.52,0.22-8.6,0.3-9.23c0.06-0.43,0.23-0.77,0.52-1.01c0.29-0.24,0.66-0.37,1.12-0.37c0.43,0,0.78,0.12,1.03,0.37
		c0.26,0.24,0.42,0.57,0.47,0.97c0.14,1.93,0.22,4.48,0.22,7.68l-0.04,6.9c-0.03,0.52-0.04,1.31-0.04,2.37
		c-0.06,3.48-0.2,6.45-0.43,8.93c-0.14,1.12-0.34,1.96-0.58,2.5c-0.24,0.55-0.73,0.82-1.44,0.82c-0.26,0-0.63-0.07-1.12-0.22
		l-0.13-0.04c-0.35-0.23-0.59-0.46-0.73-0.69c-0.14-0.23-0.33-0.63-0.56-1.21c-0.81-1.93-1.56-3.92-2.26-5.97
		c-0.7-2.05-1.5-4.52-2.39-7.4L38.48,54.01z"/>
	<path class="st0" d="M74.58,39c0.19,0.24,0.28,0.53,0.28,0.88l-0.05,0.67c-1.17,8.64-2.26,15.8-3.25,21.48l-0.26,1.6
		c-0.28,2.03-0.54,3.71-0.8,5.03c-0.26,1.33-0.58,2.42-0.96,3.28c-0.69,1.48-1.53,2.22-2.53,2.22c-0.24,0-0.43-0.02-0.57-0.05
		c-1.17-0.21-1.95-2.27-2.32-6.2l-1.14-13.53c-1.79,12.39-3.43,18.99-4.91,19.78l-0.15,0.05c-0.34,0.07-0.62,0.1-0.83,0.1
		c-0.83,0-1.45-0.52-1.86-1.55c-0.55-1.34-1.02-3.3-1.39-5.89c-0.38-2.58-0.76-5.82-1.14-9.71c-0.45-3.48-0.79-6.73-1.03-9.76
		c-0.34-2.58-0.52-4.47-0.52-5.68c0-1.1,0.13-1.92,0.39-2.45c0.26-0.53,0.7-0.8,1.32-0.8c0.31,0,0.6,0.09,0.88,0.26
		c0.28,0.17,0.48,0.4,0.62,0.67c0.07,0.14,0.13,0.32,0.18,0.54c0.05,0.22,0.11,0.47,0.18,0.75c0.14,0.62,0.36,2.05,0.67,4.29
		c0.28,1.55,0.6,3.55,0.98,5.99l0.41,2.43l0.41,2.84c0.07,0.59,0.21,1.6,0.41,3.05l2.12-12.08c0.38-2.13,0.75-3.8,1.11-4.98
		c0.36-1.19,0.77-2.07,1.21-2.66c0.41-0.55,0.84-0.83,1.29-0.83c0.52,0,1,0.36,1.45,1.08c0.45,0.72,0.77,1.69,0.98,2.89
		c0.24,1.58,0.57,3.99,0.98,7.23c0.07,0.76,0.21,1.89,0.41,3.41l0.62,5.16l0.72-3.98c0.41-2.51,0.81-4.75,1.19-6.71l1.5-7.49
		c0.14-0.69,0.4-1.2,0.8-1.52c0.4-0.33,0.89-0.44,1.47-0.34c0.1,0,0.2,0.01,0.28,0.03c0.09,0.02,0.09,0.03,0.03,0.03
		C74.12,38.6,74.39,38.76,74.58,39z"/>
	<path class="st0" d="M89.84,52.94c0,2.86-0.22,5.25-0.67,7.18c-0.45,1.93-0.9,3.36-1.34,4.29c-0.1,0.17-0.3,0.52-0.59,1.03
		c-0.29,0.52-0.63,0.95-1.01,1.29c-1.24,1.38-2.65,2.07-4.23,2.07c-0.59,0-1.1-0.07-1.55-0.21c-0.55-0.14-1.03-0.38-1.45-0.72
		c-0.41-0.34-0.84-0.81-1.29-1.39c-0.59-0.86-1.07-1.76-1.45-2.69c-0.83-2.17-1.24-4.44-1.24-6.82l-0.05-0.98
		c0-4.06,0.36-7.5,1.08-10.33c0.34-1.24,0.86-2.55,1.55-3.92c0.14-0.21,0.37-0.55,0.7-1.03c0.33-0.48,0.66-0.88,1.01-1.19
		c0.96-0.89,2.1-1.34,3.41-1.34c1.72,0,3.13,0.77,4.23,2.32c0.96,1.48,1.62,3.05,1.96,4.7C89.53,47.88,89.84,50.46,89.84,52.94z
		 M88.55,72.41c0,0.65-0.15,1.07-0.46,1.24c-0.31,0.17-1.03,0.31-2.17,0.41c-0.93,0.1-1.84,0.15-2.74,0.15l-2.74-0.05
		c-1.1,0-1.96-0.04-2.58-0.13c-0.62-0.09-1.03-0.27-1.24-0.54c-0.17-0.24-0.26-0.5-0.26-0.77c0-0.34,0.1-0.67,0.31-0.98
		c0.31-0.55,2.24-0.83,5.78-0.83c1.96,0,3.55,0.07,4.75,0.21C88.1,71.22,88.55,71.65,88.55,72.41z M85.76,57.22c0,0,0-1.6,0-4.8
		l-0.05-1.76c-0.03-1.48-0.19-2.98-0.46-4.49c-0.21-1.2-0.53-2.39-0.98-3.56c-0.21-0.55-0.53-1.07-0.98-1.55l-0.41-0.41
		c-0.03,0-0.08,0.04-0.13,0.13c-0.05,0.09-0.15,0.2-0.28,0.34c-0.45,0.48-0.84,1.03-1.19,1.65c-0.34,0.65-0.61,1.39-0.8,2.19
		c-0.19,0.81-0.3,1.32-0.34,1.52c-0.55,2.44-0.83,4.91-0.83,7.38c0,1.24,0.03,2.15,0.1,2.74c0.17,2.17,0.48,3.91,0.93,5.22
		c0.41,1.27,0.81,2.2,1.19,2.79c0.17,0.31,0.38,0.57,0.62,0.77l0.83-1.03c0.31-0.45,0.58-0.97,0.83-1.58
		c0.24-0.6,0.46-1.21,0.67-1.83C85.33,58.46,85.76,57.22,85.76,57.22z"/>
	<path class="st0" d="M97.69,64.71l-0.1,0.1c1.82,1.72,3.68,3.75,5.58,6.09c0.24,0.28,0.52,0.69,0.83,1.24
		c0.07,0.28,0.1,0.46,0.1,0.57c0,0.59-0.22,0.95-0.67,1.08c-0.45,0.24-0.91,0.36-1.39,0.36c-0.52,0-1.02-0.15-1.5-0.46
		c-0.24-0.17-0.83-0.77-1.76-1.81c-0.93-1.03-1.74-1.98-2.43-2.84l-0.15-0.15l-0.1,3.51c-0.03,0.59-0.18,1.02-0.44,1.29
		c-0.26,0.28-0.66,0.45-1.21,0.52h-0.62c-1.27,0-1.91-0.64-1.91-1.91c-0.14-2.17-0.24-4.58-0.31-7.23l-0.1-8.62
		c0-1.89,0.03-4.11,0.1-6.66c0.07-2.75,0.1-4.65,0.1-5.68c0-1.48,0.03-2.57,0.1-3.28c0.07-0.71,0.24-1.18,0.52-1.42
		c0.41-0.45,1.06-0.79,1.94-1.03c0.88-0.24,1.85-0.36,2.92-0.36c1.48,0,2.77,0.19,3.87,0.57c1.03,0.34,1.94,0.94,2.71,1.78
		c0.77,0.84,1.33,1.87,1.68,3.07c0.34,1,0.52,2.12,0.52,3.36c0,3-0.72,6.02-2.17,9.09c-1.38,3.13-3.37,6.04-5.99,8.73L97.69,64.71z
		 M95.21,61.36l0.1-0.1h-0.05L95.21,61.36z M96.01,41.47c-0.09,0.14-0.1,0.5-0.03,1.08l0.21,17.45c1.79-2.62,3.18-5.53,4.18-8.73
		c0.45-1.65,0.67-3.15,0.67-4.49v-0.98c0-1.07-0.22-2.07-0.67-3c-0.34-0.72-0.75-1.19-1.21-1.39c-0.46-0.21-1.27-0.28-2.4-0.21
		C96.35,41.25,96.09,41.34,96.01,41.47z"/>
	<path class="st0" d="M119.17,38.84c0.38,0.34,0.57,0.76,0.57,1.24c0,0.48-0.21,0.92-0.62,1.32c-0.41,0.4-0.98,0.61-1.7,0.65
		c-0.24,0-0.57,0.02-0.98,0.05c-0.41,0.03-0.88,0.05-1.39,0.05c-0.21,0-0.41-0.03-0.62-0.1c0,0.55,0.03,1.41,0.1,2.58
		c0.07,1.93,0.1,3.34,0.1,4.23v4.08c0,2.51-0.03,6.25-0.1,11.21v1.24c-0.07,2.82-0.17,4.92-0.31,6.3l-0.1,0.98
		c-0.1,0.79-0.52,1.26-1.24,1.39c-0.28,0.07-0.59,0.1-0.93,0.1c-0.52,0-0.9-0.17-1.14-0.52c-0.24-0.34-0.41-0.94-0.52-1.78
		c-0.1-0.84-0.15-2.07-0.15-3.69l0.05-5.53c0.03-0.48,0.05-1.2,0.05-2.17l0.15-18.13c0-0.24,0.02-0.4,0.05-0.46
		c-0.21,0.14-0.53,0.21-0.98,0.21h-2.38c-0.48,0-0.83-0.04-1.06-0.13c-0.22-0.09-0.46-0.25-0.7-0.49c-0.21-0.31-0.31-0.65-0.31-1.03
		c0-0.52,0.21-0.97,0.62-1.37c0.41-0.4,0.93-0.61,1.55-0.65c1.27-0.07,4.72-0.1,10.33-0.1C118.24,38.32,118.79,38.5,119.17,38.84z"
		/>
	<path class="st0" d="M135.54,55.21l-0.31,12.81c-0.07,0.79-0.1,1.45-0.1,1.99c0,0.53-0.02,0.97-0.05,1.32
		c-0.03,1.14-0.1,1.87-0.18,2.19c-0.09,0.33-0.34,0.56-0.75,0.7c-0.48,0.07-0.96,0.07-1.45,0c-0.62-0.14-1.02-0.41-1.19-0.83
		c-0.17-0.41-0.29-1.2-0.36-2.38l-0.1-2.84h-0.15l-6.92,0.05h-0.15l-0.05,1.34c-0.14,1.41-0.33,2.46-0.57,3.15
		c-0.24,0.93-0.84,1.39-1.81,1.39c-0.93,0-1.53-0.48-1.81-1.45c-0.14-0.83-0.21-1.48-0.21-1.96c-0.03-1.07-0.05-2.63-0.05-4.7
		c0-2.58,0.03-4.56,0.1-5.94v-2.94c0-3.86,0.07-7.62,0.21-11.31c0.03-1.96,0.12-3.46,0.26-4.49c0.14-1.03,0.4-1.78,0.77-2.25
		c0.38-0.46,0.93-0.68,1.65-0.65c1.14-0.14,1.81,0.41,2.01,1.65c0.07,0.28,0.1,0.52,0.1,0.72c0,0.21,0.02,0.36,0.05,0.46
		c0.03,0.83,0.05,2.07,0.05,3.72c0,2.27-0.02,3.98-0.05,5.11c-0.07,3.37-0.14,5.9-0.21,7.59l-0.1,4.03l-0.15,3.51
		c2.2-0.07,3.87-0.1,5.01-0.1c0.34-0.03,0.68-0.04,1.01-0.03c0.33,0.02,0.63,0.01,0.9-0.03v-3.51c-0.03-1.96-0.05-4.63-0.05-8v-3.41
		l0.05-2.48c0-1.03,0.03-2.75,0.1-5.16c0.07-1.17,0.24-2.08,0.52-2.74c0.28-0.65,0.76-0.98,1.45-0.98c0.41,0,0.86,0.12,1.34,0.36
		c0.41,0.21,0.66,0.53,0.75,0.98c0.09,0.45,0.18,1.34,0.28,2.69l0.1,4.54C135.49,50.94,135.5,53.56,135.54,55.21z"/>
</g>
<path class="st0" d="M19.11,30.29c0.35-0.42,0.94-1.17,1.79-2.27c1.16-1.56,2.1-2.8,2.8-3.71c0.47-0.57,0.9-1.11,1.3-1.61
	c1.36-1.62,2.49-2.83,3.35-3.6c-0.2,0.52-0.47,1.24-0.81,2.14c-0.04,0.09-0.14,0.34-0.49,1.27c-0.28,0.75-0.46,1.22-0.53,1.45
	c-0.23,0.59-0.44,1.12-0.64,1.57l-0.02,0.05c-0.89,2.49-1.46,4.47-1.71,5.91c-0.15,1.02-0.15,1.86,0.01,2.57
	c0.18,0.99,0.71,1.74,1.51,2.17l0.02,0.01c0.23,0.11,0.54,0.21,0.91,0.21c0.38,0,0.84-0.1,1.36-0.38c0.5-0.27,1.05-0.67,1.68-1.22
	l0.03-0.03c0.97-0.93,2.16-2.32,3.56-4.12c0.44-0.55,0.92-1.16,1.43-1.84c0.75-1.03,1.74-2.42,2.94-4.15
	c0.27-0.38,0.5-0.71,0.69-0.99c0.06,0.06,0.12,0.12,0.19,0.18c0.51,0.43,1.16,0.54,1.82,0.3l0.05-0.02c0.34-0.15,0.7-0.41,1.08-0.79
	c0.46-0.46,0.99-1.2,1.64-2.28c0.25-0.39,0.54-0.87,0.87-1.43l0.12-0.21v-0.04c0.05-0.08,0.12-0.22,0.25-0.43
	c0.25-0.42,0.41-0.7,0.5-0.87c0.52-0.91,0.97-1.66,1.32-2.2c1.17-1.78,1.84-2.33,2.11-2.49c0.01-0.01,0.03-0.01,0.04-0.02
	c0.06,0.08,0.15,0.22,0.25,0.44c0.97,2,0.96,5.68-0.02,10.94l-0.21,0.26c-1.32,1.6-1.87,2.22-2.1,2.44
	c-1.46,1.33-2.79,2.94-3.94,4.78c-1.17,1.86-1.97,3.67-2.4,5.36c-0.46,1.66-0.5,2.89-0.1,3.77c0.39,0.86,1.07,1.31,1.94,1.31
	c0.31,0,0.64-0.06,0.99-0.17c0.79-0.25,1.58-0.79,2.43-1.66c0.79-0.81,1.48-1.72,2.05-2.72l0.01-0.02c0.7-1.29,1.41-3.1,2.13-5.37
	c0.69-2.18,1.28-4.45,1.74-6.75c1.45-1.74,2.36-2.82,2.77-3.29l0.03-0.04c0.23-0.3,0.46-0.59,0.69-0.89
	c1.11-1.27,2.08-2.34,2.88-3.18l0.03-0.04c0.51-0.59,0.46-1.36-0.12-1.9c-0.38-0.35-0.75-0.4-1-0.39c-0.24,0.01-0.59,0.11-0.91,0.47
	c-0.81,0.85-1.81,1.96-2.94,3.29c-0.21,0.23-0.42,0.48-0.65,0.74c0.32-3.59,0.03-6.26-0.86-8.1c-0.5-1.06-1.14-1.73-1.92-1.97
	c-0.68-0.21-1.4-0.11-2.14,0.32c-0.91,0.51-1.91,1.63-3.08,3.41c-0.37,0.57-0.82,1.34-1.35,2.29c-0.12,0.14-0.28,0.39-0.56,0.9
	c-0.04,0.07-0.07,0.14-0.1,0.19h-0.03l-0.26,0.44c-0.33,0.57-0.61,1.04-0.81,1.42c-0.26,0.43-0.48,0.77-0.67,1.03
	c0-0.03,0-0.06-0.01-0.09l0-0.03c-0.13-1.41-0.2-3.23-0.2-5.41c0-0.36,0.02-0.89,0.05-1.57l0-2.41c0-0.79-0.56-1.34-1.36-1.34
	c-0.8,0-1.36,0.55-1.36,1.34v2.35c-0.03,0.7-0.05,1.25-0.05,1.63c0,2.08,0.06,3.84,0.17,5.24c0,0-0.01,0.01-0.01,0.01l-0.03,0.03
	c-0.24,0.31-0.88,1.18-1.95,2.66c-1.19,1.71-2.17,3.1-2.91,4.11c-0.47,0.63-0.92,1.24-1.35,1.8c-1.31,1.7-2.41,2.97-3.27,3.76
	c-0.48,0.43-0.8,0.66-0.99,0.78c-0.06-0.24-0.11-0.74,0.03-1.7c0.19-1.25,0.72-3.06,1.57-5.38c0.16-0.45,0.36-0.98,0.58-1.55
	c0.08-0.17,0.23-0.51,0.6-1.48c0.36-0.96,0.44-1.14,0.44-1.15l0.04-0.09c0.37-1.01,0.65-1.78,0.85-2.31l0.02-0.05
	c0.25-0.82,0.4-1.43,0.48-1.87l0.01-0.04c0.04-0.31,0.06-0.58,0.06-0.81v-0.11l-0.03-0.11c-0.12-0.48-0.39-0.87-0.77-1.12
	l-0.05-0.03c-0.46-0.27-1.23-0.48-2.28,0.01c-0.52,0.24-1.1,0.65-1.78,1.25c-0.14,0.12-0.28,0.25-0.44,0.39
	c-1.52-1.14-3.25-1.31-5.05-0.48c-1.48,0.71-2.89,2.05-4.19,4c-0.67,1.03-1.23,2.09-1.68,3.18c-0.01,0.02-0.03,0.04-0.04,0.06
	l-0.04,0.07c-0.18,0.36-0.56,1.22-1.18,2.72L13.13,29c-0.36,0.82-0.68,1.57-0.96,2.22c-0.21,0.45-0.4,0.88-0.55,1.26
	c-0.73,1.65-1.34,2.93-1.83,3.81c-0.18,0.32-0.34,0.6-0.49,0.83C9.25,37,9.19,36.85,9.13,36.68c-0.38-1.08-0.7-2.73-0.96-4.91
	c-0.43-3.54-0.65-7.73-0.65-12.45c0-2.16,0.01-3.91,0.03-5.21c1.68-0.08,3.06-0.05,4.13,0.09c0.48,0.05,0.81-0.11,1-0.26
	c0.19-0.15,0.43-0.44,0.48-0.95c0.08-0.79-0.4-1.41-1.17-1.5c-1.14-0.15-2.59-0.18-4.31-0.11c0.02-0.33,0.05-0.66,0.09-1.01
	c0.26-3.3,0.82-6.18,1.67-8.55L9.43,1.8C9.59,1.33,9.5,0.97,9.39,0.75C9.28,0.53,9.05,0.24,8.57,0.08C8.1-0.07,7.74,0.02,7.52,0.13
	C7.3,0.24,7.01,0.47,6.85,0.93c-0.89,2.58-1.5,5.68-1.81,9.23C5,10.62,4.97,11.08,4.94,11.53c-1.52,0.1-2.7,0.13-3.52,0.1l-0.03,0
	C0.57,11.63,0,12.19,0,13c0,0.8,0.54,1.35,1.32,1.36c0.87,0.03,2.02,0,3.5-0.09c-0.02,1.3-0.03,2.99-0.03,5.06
	c0,4.86,0.22,9.15,0.66,12.76c0.28,2.44,0.64,4.26,1.11,5.56c0.31,0.81,0.64,1.42,1.04,1.85c0.48,0.51,1.04,0.78,1.64,0.78
	c0.25,0,0.5-0.05,0.76-0.14c0.69-0.23,1.34-0.99,2.15-2.53c0.55-0.96,1.2-2.3,1.94-3.98c0.21-0.41,0.41-0.86,0.62-1.34
	c0.09-0.2,0.18-0.42,0.27-0.64c0.63,0.68,1.53,0.78,2.47,0.26l0.06-0.04c0.23-0.15,0.49-0.36,0.8-0.63l0.04-0.04
	c0.09-0.09,0.18-0.19,0.27-0.3 M47.26,30.3c-0.75,2.74-1.58,4.94-2.48,6.56c-0.43,0.77-0.95,1.47-1.55,2.08
	c-0.44,0.45-0.78,0.72-1.04,0.87c0.02-0.31,0.09-0.78,0.28-1.5c0.34-1.38,1.05-2.91,2.08-4.56C45.38,32.45,46.29,31.29,47.26,30.3z
	 M17.16,27.01c0.41-1.58,1.1-3.12,2.05-4.57c1.01-1.5,2.04-2.5,3.07-2.97c0.37-0.18,0.71-0.26,1.04-0.26c0.31,0,0.61,0.08,0.9,0.24
	c-0.42,0.47-0.87,0.98-1.34,1.53l-0.02,0.02c-0.41,0.51-0.86,1.08-1.32,1.67c-0.71,0.91-1.66,2.13-2.88,3.69
	c-0.9,1.19-1.53,2.04-1.81,2.4C16.89,28.33,16.97,27.77,17.16,27.01z"/>
</svg>
