<?xml version="1.0" encoding="utf-8"?>
<!-- Generator: Adobe Illustrator 24.2.3, SVG Export Plug-In . SVG Version: 6.00 Build 0)  -->
<svg version="1.1" id="Layer_1" xmlns="http://www.w3.org/2000/svg" xmlns:xlink="http://www.w3.org/1999/xlink" x="0px" y="0px"
	 viewBox="0 0 322.1 210.8" style="enable-background:new 0 0 322.1 210.8;" xml:space="preserve">
<style type="text/css">
	.st0{fill:#E5E5E5;}
	.st1{fill:#777575;}
	.st2{fill:#1E1C1B;}
</style>
<path class="st0" d="M166.2,113.9c0.4-3.1,0.5-6.1,1.1-9.2c1.4-6.9,2.9-13.9,5.9-20.3c0.1-0.3,0.9-0.7,0.8-1
	c-0.1-0.5-1.3-0.5-1.7-0.6c-1.1-0.2-1-1.7-1.6-0.7c-0.6,1-1.7,3.8-2,4.9c-0.7,2.6-1,5.1-1.6,7.7c-0.9,3.5-1.4,7.4-1.8,11.1
	c-0.2,1.8-0.6,5.3-0.7,7.1c-0.8,12.5-1.2,22.7-1.2,35.2c0,0.5-0.5,1.4-0.4,1.9c0,0,0,0.1,0,0.1c0,0.7,0,1.5,0,2.2c0,2,0.1,4,0.1,6
	c0.1,4,0.2,8,0.2,11.9c0.1,6.5,0.3,13.1,0.9,19.6c0.5,5.4,2.1,11.1,3,16.4c0.3,1.7,0.4,3.2,1.9,4.1c0.3,0.2,0.1,0.3,0.4,0.2
	c0.7-0.2,0.8-1,0.8-1.7c0-3.4-1.3-11.3-1.5-14.8c-0.5-9-2.1-14.5-2.3-24.1c0-1.4-0.1-2.7-0.1-4.1c-0.1-4.7-1.2-19.8-1.3-22
	c-0.3-5.6,0.3-10.4,0.5-16.1C165.5,123.1,165.6,118.5,166.2,113.9z"/>
<path class="st0" d="M145,18.1c-2.1-3.2-6.3-4.7-9.8-3.2c-3.8,1.5-4.3,6.7-3.2,10.6c1.1,3.9,4,6.8,3.7,10.8
	c-0.2,2.9-2.4,6.7-1.5,9.5c0.6,1.9,2.9,3.3,2.8,5.3c-0.1,1.6-1.7,2.2-2.6,3.5c-1.6,2.1-2.8,5.6-3.1,8.2c-0.3,2.3,0.1,4.9,2,6.3
	c1.1,0.8,2.4,1.2,3.5,1.9c4.6,2.7,3.6,6.5,6.4,6.8c1.3,0.1,1.3-1.2,2.3-2c5.1-3.6,12.6-5.2,17.4-1.2c1.6,1.3,1.3,2.6,4.2,4.6
	c2.3,1.5,5.1,2.8,7.6,4c8,3.9,11.8,6.3,17.3,3.2c1,4,1.8,4.9-0.9,12c-0.2,0.6,0.2,0.2,0.5,0.8c0.4,0.7,1.1,1.6,1.5,1.8
	c3.2,1.9,1.7,5.1,3.8,6.4c1.9,1.3,4.4-0.6,6.6-1c3.1-0.5,5.8,0.7,10.6,0c0,0,2.6,3,5.6,3.5c3,0.4,5.8-0.8,6.1-1.4
	c1.6-3.3,4.5-6.4,2.9-9.6c-2.1-4.2-3.8-7.6-7-9.2c-1.7-0.9-3.8-1.7-5.3-3c-1.5-1.3-3.7-3.2-2.8-4.9c3,2.8,6.1,5.6,9.9,7.2
	c2.7,1.1,6,2.6,8.8,2.2c1.9-0.3,3.3-2.3,5.1-3.2c4.2-2,8.1-5.8,9.3-10.5c0.2-0.7,0.4-1.5,0.2-2.2c-2.2-7.2-4.3-4.7-4.9-5.7
	c-1.1-2,0.9,3.4,1.5-6.7c0-0.4-0.3-0.9-0.7-1.1c-0.3-0.1-0.7-0.1-1,0.1c-3.4,3.1-2.9,1.4-3.9,2.7c2-3.4-0.7-6.8-2.2-10.1
	c-0.6-1.2-0.5-2.6-1.2-3.7c4.7-3.9,5.6-4.9,5.6-5.5c-0.1-4-0.2-6.1,1.4-8.9c0.8-1.5,0.7-3.1,0-4.5c-1.1-2-3.8-2.2-6-2.9
	c-2.1-0.6-3.4-3.2-6.4-3.4c-2.2-0.2-4.3-0.3-6.1,1c0.3-3.1,0.2-6.5-1.7-9s-5.9-3.6-8.2-1.5c-1.6-4.7-4.3-9.3-10.5-10
	c-5-0.5-6.1-2.7-14.7,0.9c-1.8-7.1-9.6-8.4-14.5-5.1c-1.3,0.9-2.3,2-3.6,2.9c-3.5,2.4-8.4,2.6-11.3,5.7c-2.3,2.6-0.4,7-2,10
	c-1.9,3.8-2.8,10.3-4.8,7.3C149,24,146.5,20.3,145,18.1z"/>
<path class="st0" d="M117.5,88.6c0.7,0.7,1,1.7,1.6,2.4c1.4,1.7,2.5,3.8,2.8,6c0.2,2.1,0.5,4.6,0.7,6.6c0.2,1.8-0.3,3.5,0.2,5.3
	c0.5,1.7,2,3.3,2.5,4.9c0.7,2.3,0.7,4.1,1,6.6c0.6,5.3,1.9,10.1,5.5,14c4,4.5,11.5,8.7,17,11c1.7-5.2,1.1-11.1,1.7-16.5
	c0.2-1.8,0.6-3,0.6-4.8c0.1-3.9-2-6.3-2.6-9.2c-1-4.6-0.5-9.7-2.7-13.9c-0.8-1.5-1.9-2.9-3.1-4.2c-1.6-1.9-3.8-4.4-5.9-5.9
	c-1.6-1.1-2.8-1.2-4.6-2.1c-2.2-1.1-4.4-2.1-6.6-3.2c-2-1-4.1-1.9-6.1-2.9c-1.3-0.6-4.6-2.9-6-2.5C110.9,81.1,116.5,87.7,117.5,88.6
	z"/>
<g>
	<g>
		<path class="st1" d="M168.8,210.8c-6.7-1.3-8.8-88.4-1.9-117.1c0-0.1,2.8-12.5,3.9-12.2c1.1,0.3-4.8,12.7-6,31
			c-2.4,37-0.3,97.5,4.6,97.5c1.7-0.1-1.6-4.7-4.2-59.6c-2.2-44.8,7.5-69.3,9.5-67.1c0.2,0.2-14.2,24.9-7.8,81.3
			c0.5,4.1-0.2-0.5,1.4,20.5C169.7,206,172.6,211.5,168.8,210.8z"/>
		<path class="st1" d="M163.5,161.3c-8.6-4.9-18.7-19.3-23.4-28.1c-8.9-16.5-6.6-31.9-17.8-44.4c-3.9-4.3-3-2-10.1-9.1
			c-0.8-0.8,0.1-1.3,0.5-0.8c15.3,16.6,13.3,4.5,22,38c3.9,14.8,17.4,37,29.1,43.6C164.4,160.9,164,161.6,163.5,161.3z"/>
		<path class="st1" d="M148.9,146.2c-1.4-0.6,1.4-16.1,1.8-18.9c0.8-5.9-2-11.5-2.3-12.3c-1.8-4.6,1.4-5.3-2.4-13.2
			c0,0.1-1.5-2.8-2.6-4c-9.7-10.8-6.8-6.2-16.2-10.7c-16.8-8-15.2-7.8-14.9-8.2c0.6-0.8,0.4,0.8,15.2,7.4
			c0.6,0.3,22.6,6.1,21.2,25.8c-0.1,2.9,2.4,5.1,2.9,10c0.4,4.5-1.5,16.1-1.4,15.4C148.8,143.8,150.2,146.8,148.9,146.2z"/>
		<path class="st1" d="M148.2,145.6c-5.3-3.3-20.7-5.5-22.4-26.1c-0.7-8.3-2.7-6.8-3.4-11.9c-0.4-2.6-0.4-12.1-2.1-14.9
			c-0.9-1.3-5.5-5.5-7.7-11.8c0.1,0.4-1-2.4,0.3-1.7c0.2,0.1,0.1-0.1,0.7,1.9c5.2,14.8,8,1.3,9.7,25.8c0,0,0,0,0,0c0,0,0,0,0,0.1
			c0,0,0,0,0,0c0.4,3.8,2.4,4.7,3.3,9.9c0.4,2.2-0.2,15.4,11.2,22.7c2.7,1.8,11.8,4.9,11.1,6C148.7,145.7,148.4,145.7,148.2,145.6z"
			/>
	</g>
	<g>
		<path class="st1" d="M207.6,36.5c-0.1-0.1,1.9-5.4,0.6-6.9c-1.8-1.7-5.9,0.6-8.3,0c-0.1,0-1.8-0.6-1.4-0.5
			c-1.8-0.5-3.4,0.3-3.5-0.5c0-1,3.2-0.5,4.5-0.1c3.8,1.3,11.5-4,9.7,5.4C209,35.1,208.3,37.4,207.6,36.5z"/>
		<path class="st1" d="M197.3,28.8c-0.4-0.8,4.7-3.1,4.8-3.1c2.2-0.9,5.2,0.1,4.1,2.9c-0.1,0.4-0.9,0.6-0.7-0.7
			c0,0.2,0.5-1.1-0.8-1.5C201,25.5,197.9,30.1,197.3,28.8z"/>
		<path class="st1" d="M202.3,26.4c-0.4,0-0.8-3-1.6-4.5c-0.7-1.2-2.1-2-3-2.1c-2,0-2.3,2.2-2.9,3.1c-1,1.5-2.8,2-3.6,2.6
			c-0.4,0.3-1-0.4-0.5-0.7c0.9-0.6,1.1-0.6,1.6-0.9c2.8-1.6,1.6-3,3.5-4.3C200.7,16.4,203.9,26.6,202.3,26.4z"/>
		<path class="st1" d="M215.6,29.8c-0.5-0.2,0-0.2-0.8-2.5c-0.7-1.7-2.2,0.2-3.4,0.8c-0.6,0.3-1,0.4-1.5,0.7c-0.7,0.4-1.2,1-1.5,0.5
			c-0.5-0.7,1.3-1.1,3.9-2.8C216.2,23.9,217,30.3,215.6,29.8z"/>
		<path class="st1" d="M213.7,26.4c-0.3-0.1-1.7-5.2-4.4-4.2c-0.7,0.3-3.1,3.4-3.7,3.9c-0.4,0.4-1-0.3-0.6-0.7
			c0.6-0.6,2.9-3.5,3.7-4C212.4,19.6,215.6,27.4,213.7,26.4z"/>
		<path class="st1" d="M209.7,21.4c-0.3-0.3-0.6-2.4-3-3.9c-5.5-3.1-6.1,2.5-8.3,2.1c-0.4-0.1-0.4-0.6-0.1-0.8
			c4-2.2,2.1-3.5,7.2-2.7C209.7,16.8,211.3,23.2,209.7,21.4z"/>
		<path class="st1" d="M194.1,21.4c-0.6-1.8-5.1-2.7-6.5-2.2c-0.8,0.3-1.2,1.1-1.6,0.5c-0.4-0.6,1.5-1.6,2.7-1.6
			C197.5,18.6,194.8,24.5,194.1,21.4z"/>
		<path class="st1" d="M196.5,19.9c-0.5-0.3,0.5-4.4-7-4.5c-1.4,0-1.8,1.5-2.3,3.5c-0.3,1.1-1.1,0.7-0.9-0.2c1.2-4.2,2.2-4.6,4.8-4
			c2.3,0.5,4.3,0.3,5.6,3.3C197.2,18.9,197.4,20.3,196.5,19.9z"/>
		<path class="st1" d="M199.6,18.2c-0.3-0.2-0.2-0.4-0.2-0.6c0.1-0.9-2.1-4.3-4.3-4.7c-4.8-0.7-6.5-4.7-10.6-1.9
			c-0.6,0.4-1.8-1.1,2-1.7c4.1-0.6,4.2,2,8,2.6C199.5,12.6,201.4,19.1,199.6,18.2z"/>
		<path class="st1" d="M205.4,11.7c-4-3.9-9.4-0.6-11.7-0.4c-0.1,0-1.9,0.2-1.8,0.2c-0.5,0.2-0.8-0.6-0.3-0.8c0.1,0,0.4-0.1,0.3,0
			c5.7-0.7,5.8-2.1,9-1.5c3.2,0.6,5.4,1.3,5.9,4c0.3,1.9,1.5,4.1,0.8,4.6C206.5,18.4,206.4,12.7,205.4,11.7z"/>
		<path class="st1" d="M218.8,28.2c-0.8-0.2,0.2-1.4,0.4-4.6c0.1-3.3-1.6-3.8-2.6-4.1c-1-0.3-5.7-0.7-6.7-0.5
			c-0.5,0.1-1.1,0.4-1.3-0.1c-0.5-1.5,7.1-0.5,8-0.3C222.2,20.3,219.5,28.4,218.8,28.2z"/>
		<path class="st1" d="M200.8,70.7c-5.3-0.6,14.9-1.6,17.9-7.7c3.1-6.7-0.6-6.6-1.7-11c-1.1-4.4,0.1-5.9-1.1-9.2
			c-3.4-8.9-16.3-5.3-19.4-7.9c-2.2-1.9-1.3-4-2.1-6.3c-0.4-1-3.2-1.6-5.8-5.5c-0.4-0.6-1-2.2-2.5-2.7c-4.6-1.4-10.1,3.9-10.4,2.3
			c-0.1-0.4,2.7-1.6,2.6-1.6c9.6-5.1,10.5,1.6,13.4,4.1c3.6,3.1,3.3,1.2,4.1,4.9c0.2,1-0.2,2.9,1.6,4.1c3.4,2,12.7-0.8,17.7,5.3
			c3.9,4.6,1.5,6.7,3.1,12.7c0.9,3.4,3.8,3.3,2.3,8.6c-1.1,4-2,5.5-11.5,8.3C206.9,69.8,201.6,70.8,200.8,70.7z"/>
		<path class="st1" d="M168,49.9c-3.5-7.9,7.3-24.5,7.4-27.6c0,0,0,0,0,0c0,0,0,0,0,0c0.1-4.3-2.4-2.4-0.6-9.9
			c0.3-1.2,1.9-5.7-1-5.9c-20.6-0.4-15.4,11.4-17.5,16.3c-0.1,0.3-3.4,6.8-3.8,6.6c-1.1-0.4,2.3-4.6,3.3-7.6
			c1.4-4.9-2.8-15.7,17-16.1c4.1-0.1,3.8,2.7,2.9,6.4c-1.5,6.4-0.4,5.3,0.3,8.3c0.9,3.7-2.2,8-2.1,7.9c-9.7,20.8-3.4,21-5.4,21.8
			C168.4,50.2,168.1,50.1,168,49.9z"/>
		<path class="st1" d="M186.8,17.1c-3.1-5.9-2.4-6.1-4.7-5.8c-2.7,0.5-5.1,2.5-6.9,2.9c-0.6,0.1-0.8-0.7-0.2-0.8
			c7.9-2.7,8.2-6.5,12.5,3.1C187.9,17.3,187.1,17.5,186.8,17.1z"/>
		<path class="st1" d="M185.8,9.7c-2-3.7-4.2-7.1-7.9-4c0.4-0.3-1.8,1.5-1.9,1.6c-0.5,0.4-1-0.2-0.7-0.6
			C184-3.1,187.7,13.2,185.8,9.7z"/>
		<path class="st1" d="M233.3,50.1c-1.1-0.6,3.4-4.7,1.1-9.2c-1.8-3.1-1.2-7.7-4.3-9.6c-2.6-1.5-4.1,0.2-6.8-1
			c-1.1-0.5-1.9-1.8-3.1-2.1c-1.2-0.1-8.3,4.6-10.5,8.2c-0.4,0.6-3.8,0.8,6.2-7c0,0,0,0,0,0c0,0,0,0,0,0c6.3-4.8,5.3,0.3,9.2,0.4
			c2.2,0,4.4-0.7,6.3,1.5c1.6,1.9,2.3,3.7,2.5,4.8c0.9,5.7,3.7,6.6,0.3,13.2C234,49.7,233.8,50.4,233.3,50.1z"/>
		<path class="st1" d="M213.8,80.1c-6.6-0.2-4.3-1.2-4.1-1.1c1.9,0.4,16.7,0.4,19.1-0.2c4.6-1.3,12.3-8.5,13.4-10.1
			c1.4-2.4,0.7-3.9,0.6-5.1c0-0.1,0-2.4,0-2.3c-1,0-1.8,2.7-5.2,4.8c-4.3,2.7-6.2,5.3-6.7,4.6c-0.6-0.7,4.9-4.5,5.7-5
			c5.1-3.1,6.3-9.1,7-2.1c0.4,3.5,1.1,5-5.9,10.6C231.1,79.3,231.5,80.5,213.8,80.1z"/>
		<path class="st1" d="M237.1,66.2c-1.2-0.3,0.7-0.5,1.3-4.3c0.3-2-0.7-2.9-1.9-5.2c-3.3-6-2-5-3.1-5.9c0.8,0.7-4.5-5.1-10.9-0.5
			c-1.2,0.9-1.7,1.5-3.6,3.4c-0.9,1-2.8,1,2-3.3c6.1-5.4,13.2-1.6,13.9,0.8c0.4,1.2,0.8,2.6,1.7,3.9C241.5,61.8,238,66.4,237.1,66.2
			z"/>
		<path class="st1" d="M233.9,51.5c-0.7-0.5,3.1-2.5,5.2-5.6c1.4-2.2-0.3-3.8,0.3-6.1c0.6-1.8,4.3-5.5,1.1-8.4
			c-1.6-1.4-4.2-1-9.8-4.7c-2.6-1.6-11.5,1.1-11.7,0.1c-0.1-0.6,0.6-0.5,2.8-0.9c9.4-1.6,8.1-0.3,12.1,1.7c5.5,2.6,6.2,1.9,7.9,4
			c2.7,3.5-1.9,6.8-1.6,10.1c0.2,2.6,1.1,3.2-1.5,6.1C238.2,48.2,234.7,52,233.9,51.5z"/>
		<path class="st1" d="M222.6,25.9c-0.9-5.6,1-8.7-5.3-9.9c-1.7-0.3-2-0.7-3.5,0.2c-4.9,4-4.7,2-4.2,1.7c5.4-3.1,3.7-3.8,9.3-2.6
			C225.6,16.9,223.2,29.4,222.6,25.9z"/>
		<path class="st1" d="M212.7,16.4c-0.5-1.2,0-0.6-2-3.6c-5.6-8.1-4.4-4.2-12.4-6.8c-2.6-0.8-3.2-1-9.7,1.2c-0.6,0.1-1-0.7-0.1-0.9
			c-0.1,0,0.2,0,3-0.9c6.7-2.2,6.3,0.5,11.2,0.7c4.5,0.2,5,1.2,7.5,4.4C215.1,16.7,213.1,17.2,212.7,16.4z"/>
		<path class="st1" d="M188.4,9.8c-0.9-0.7,0.5-1.6-3.1-6.5c-2.7-3.8-10.5-2.5-11.7-1.2c-2.8,3.3-11.1,7.3-2.5,1.2
			c3.7-2.7,1.2-2.8,6.6-3.1c2.7-0.2,6.1-0.7,8.6,3.1C188.9,7.1,189.7,10.8,188.4,9.8z"/>
		<path class="st1" d="M177.3,84.9c-2.9-1.5-10.8-2.1-16.3-11.4c-1.7-3-3.7-3.6-5.6-6.6c-3.4-5.3-3.5-11.1-3.5-11
			c-0.6-1.9-4-8.2-2.4-10.2c2.1-2.7,5.8,1.3,8,1.3c11.6,1.2,20.3,9.1,11.7,4.4c-7.5-4-11.1-2.6-15.8-5.2c-7-3.7-1.1,8.3-0.8,9.3
			c0.6,2.1,0.4,8.7,5.5,13.5c6.1,5.8,4.8,10.4,17.2,14.3c4.8,1.5,8.1,6.5,14.7,3.9c4.9-1.9,17.9-13.7,15.5-10
			c-0.1,0.1-8.2,6.6-11.1,8.6C186.5,91.2,182.7,87.9,177.3,84.9z"/>
		<path class="st1" d="M179.9,67.1c-0.7-4,1.2-6.2-3.4-10.6c0.2,0.2-5.2-4.1-5.1-4c-0.4-0.5,0.3-1,0.7-0.6c1.8,2.2,8.3,3.6,8.5,11.7
			c0,0.8-0.1,2,0.1,3.2C180.8,67.5,180,67.6,179.9,67.1z"/>
		<path class="st1" d="M204.8,76.9c-0.1-0.8-0.9-0.6-4.1-6c-4.5-7.3-12.5-7.6-14.1-8.3c-4.8-2-5.2,1-6.2,0.9
			c-1.5-0.1,1.2-2.6,3.7-2.6c1.2,0,12.5,2.2,17.2,9.1c0.1,0.1,4.8,7.3,4.3,6.2C206.1,77.4,204.9,77.5,204.8,76.9z"/>
		<path class="st1" d="M218.5,110.2c-2.9-0.8-3-4.1-7.3-3.2c-4.9,1.1-4.8-1.5-9.2,0c-2.5,0.9-3,1.6-4.6,1c-4-1.4-1.4-3.6-3.5-5.6
			c-5-4.1-3.4-4.9-2.6-6.8c1.3-2.9,1.9-5.7,0.2-8.4c-0.7-1,0.2-1.1,0.4-0.8c2.3,2.5,1.6,7.2,0,10c-2.3,4,3.9,4.2,3.9,8.4
			c0,1.7,1.9,2.9,3.3,2.5c8.2-3,7.4-0.1,10.8-0.8c-0.2,0,2.8-0.9,4.4-0.1c1.9,0.9,2.4,2.2,4,2.9c1.4,0.6,5.9-0.4,6.4-0.7
			c1.3-0.7,1.6-2.3,1.8-2.8c1.2-3.9,4.2-1.2,0.6-9c-4.2-8.1-11.9-8.1-16.2-14.7c-3.5-5.2-6.9-4.4-6.4-5.6c0.3-0.8,4.3,1,7.2,5.1
			c2.1,3.1,6,5.5,5.5,5.1c7.8,4.9,3.3,0.8,9,7.4c-0.1-0.1,1.1,1.1,1.7,2.2c0.5,1,0.6,1.8,1,2.8c1.9,5.1,0,3.1-1.5,6.8
			c-0.3,0.6-0.1,1.2-1.2,2.5C225,110,220,110.7,218.5,110.2z"/>
		<path class="st1" d="M220.3,87.5c-7.8-3.4-9.5-10.1-7.6-7.6c6.5,8.1,16.3,11.5,19.4,11c2.3-0.5,4.5-3.3,8.2-5
			c3.9-2,10.7-10.9,2.1-15.5c-5.7-3,13.2,0.9,1.3,13.9c-2.6,2.8-2.1,1.2-7.7,5.4C230,94.2,227.6,90.7,220.3,87.5z"/>
		<path class="st1" d="M136.9,51.6c-0.1-0.1-2.6-4.7-2.9-6.2c-1-4.1,1.1-6.2,1.4-8.6c0.5-5.5-9.3-14.4-0.8-21.8
			c7.1-6.2,14,8.7,21.1,18.1c-0.1-0.1,4.6,4.7,4.9,9.2c0.1,0.9,0.2,1.6,0.1,1.4c0.6,4.4-1.1,4.8-1.1,3.9c0-0.2,0.9-3.1-0.1-7
			c-0.9-3-3.5-5.5-5.6-8.5c-8.5-12.2-12.2-19.2-17.4-17.2c-9.6,4.4-0.5,17.4-0.2,20c0.4,4.2-1.4,4.5-1.6,8c-0.1,2.9,2.8,7.9,2.9,8
			C138,51.4,137.3,52,136.9,51.6z"/>
		<path class="st1" d="M142.1,78.4c-1.5-0.9-2.5-4.2-2.9-4.8c-1.3-1.5-6-3.1-7.6-6.2c-1.5-2.9,0.7-10.6,2.2-13
			c2.2-3.6,3.6-3.9,9.2-4.6c6.9-0.8,9,1.9,7.4,1.7c-2-0.3-4.1-2.1-11.7-0.1c-5.2,1.5-6.4,10.1-6.4,10c-2.3,9.1,6.1,8.3,8.1,12.5
			c3.5,8.2,3.4,0.9,7.8-0.7c2.9-1.1,9.2-1.4,11.6-1c3.1,0.3,2.2,1.8,1.5,1.4c-1.9-1.3-10.3-0.6-13.2,0.6c-0.6,0.3-0.8,0.5-0.7,0.4
			C145.6,76,144.2,79.7,142.1,78.4z"/>
	</g>
</g>
<g>
	<g>
		<g>
			<path class="st2" d="M271.7,93.9c0-10.6,0-21.2,0-31.9c0-3.1,0.4-3.6,3.5-3.5c7.4,0.1,14.8-0.2,22.2,0.5
				c9.9,0.9,20.9,8.4,23.9,19.6c2.6,9.7-1.2,19.7-9.9,26.1c-1.4,1.1-3,1.9-4.6,2.8c-2.6,1.4-2.8,2-1.3,4.5c2.9,4.6,5.8,9.1,8.6,13.7
				c0.6,1,2.1,2.1,0.3,3.3c-1.3,0.9-3.7,0.4-4.6-1c-2.4-3.8-4.8-7.6-7.3-11.4c-1-1.5-1.8-3.2-2.9-4.5c-0.7-0.8-1.9-1.5-2.8-1.5
				c-5.4-0.1-10.9,0.1-16.3,0.1c-3.2,0-3.5,0.3-3.5,3.4c0,4,0,8.1,0,12.1c0,2.3-0.7,3.1-2.7,3.1c-2,0-2.6-0.7-2.6-3.1
				C271.7,115.5,271.7,104.7,271.7,93.9z M286.9,63.1c-2.6,0-5.2,0.1-7.7,0c-1.7-0.1-2.2,0.5-2.2,2.1c0.1,12.8,0.1,25.7,0,38.5
				c0,2,0.8,2.8,2.7,2.7c4.5-0.1,9.1,0.1,13.6-0.1c4.8-0.2,9.4-1.4,13.4-4.1c9.2-6.2,11.3-12.8,9.6-22.1
				c-1.4-7.8-7.1-12.6-14.4-15.4C297.1,62.8,292,63,286.9,63.1z"/>
			<path class="st2" d="M253.4,77.3c-0.8-5.2-2.8-9.6-6.2-13.4c-7.4-8.3-19.2-9.7-28-3.3c-6.8,4.9-10.3,11.9-10.4,20.6l0,0.1
				c0.1,0.7,0.2,1.4,0.2,2.2c0.2,1.6,0.3,3.3,0.8,4.9c1.2,4.3,3.5,8.2,7,11.6c4,3.9,9.3,5.8,14.6,5.8c4.8,0,9.6-1.6,13.4-4.9
				C251.9,94.6,254.8,86.7,253.4,77.3z M231.1,61.2c0.1,0,0.3,0,0.4,0c7,0.2,12.1,3.8,15.5,10.9c1.8,3.7,2.3,7.8,1.7,12.3
				c-1.1,7.1-4.5,12.1-10.5,15.2c-5.9,3.1-13.3,1.8-18.2-3.3c-3-3.1-4.8-6.5-5.6-10.5c-1.7-8.7,1.2-16.8,7.8-21.6
				C224.8,62.2,227.8,61.2,231.1,61.2z"/>
			<path class="st2" d="M88.4,58.6c1.9-0.3,3,0.7,3.7,2.5c4.5,11.3,9.1,22.6,13.7,33.9c4.3,10.5,8.6,20.9,12.8,31.4
				c0.4,1,0.8,2.3-0.7,2.8c-1.4,0.4-3.2,0.8-4-1.1c-1.5-3.3-2.9-6.7-4.1-10.1c-0.8-2-1.9-2.9-4.2-2.9c-11.6,0.1-23.2,0.1-34.7,0
				c-2.1,0-3.2,0.8-3.9,2.7c-1.3,3.4-2.8,6.8-4.2,10.1c-0.6,1.4-2.5,2.1-4,1.3c-1.7-0.8-1-2.1-0.5-3.2c5.4-13.5,10.9-26.9,16.4-40.4
				c3.4-8.4,6.8-16.7,10.1-25.1C85.4,58.8,86.7,58.4,88.4,58.6z M88.2,110.6c4.9,0,9.9,0,14.8,0c2.5,0,3.2-1.1,2.3-3.5
				c-5-12.3-9.9-24.5-14.9-36.7c-0.3-0.8-1.4-1.9-2.1-1.9c-0.7,0-1.7,1.1-2,1.9c-1.9,4.5-3.7,9-5.6,13.6c-3.1,7.7-6.3,15.4-9.4,23.2
				c-1,2.5-0.2,3.5,2.5,3.5C78.5,110.6,83.3,110.6,88.2,110.6z"/>
			<path class="st2" d="M146.1,114.7c0-4.4,0.2-8.8-0.1-13.1c-0.2-2.2-1-4.6-2.2-6.5c-6.5-10.7-13.2-21.2-19.8-31.8
				c-0.1-0.2-0.4-0.4-0.5-0.7c-0.4-1.2-2.1-2.3-0.4-3.6c1.3-1,4-0.2,4.9,1.3c5.6,8.9,11.2,17.9,16.7,26.8c0.8,1.3,1.6,2.6,2.4,3.9
				c1.2,1.9,2.2,1.9,3.4,0c3.7-5.9,7.4-11.9,11.1-17.8c2.6-4.2,5.3-8.4,7.9-12.7c0.8-1.3,1.8-1.8,3.2-1.8c2.4,0.1,3.1,1,1.8,3.1
				c-2.4,4-5,8-7.5,12c-4.6,7.3-9.1,14.6-13.7,21.9c-1.3,2-1.9,4.2-1.9,6.7c0.1,8.1,0,16.1,0,24.2c0,2.5-0.6,3.2-2.8,3.2
				c-2,0-2.6-0.7-2.6-3.1c0-4,0-7.9,0-11.9C146.2,114.7,146.1,114.7,146.1,114.7z"/>
			<path class="st2" d="M25.2,96.2c0-9.9,0-19.9,0-29.8c0-3-0.3-3.3-3.4-3.3c-6.4,0-12.7,0-19.1,0C1.2,63.1,0,63,0,60.9
				c0-2,1.3-2.2,2.8-2.2c16.8,0,33.6,0,50.5,0c1.4,0,2.7,0.1,2.8,2c0.1,1.9-0.8,2.4-2.5,2.4c-6.4,0-12.7,0-19.1,0
				c-3.5,0-3.7,0.2-3.7,3.6c0,19.8,0,39.6,0,59.4c0,2.8-0.6,3.5-2.6,3.6c-2.1,0-2.9-0.7-2.9-2.9c0-5.8,0-11.7,0-17.5
				C25.2,105,25.2,100.6,25.2,96.2z"/>
			<path class="st2" d="M183.8,59.1c1.6,0,2.8,0,4.3,0c0,1.3,0,2.5,0,3.6c0,18.1,0,36.2,0,54.4c0,5.5,0.6,6.3,6,7.6
				c10.3,2.6,20.6,4.1,31,0.7c3.5-1.1,6.9-2.7,10.1-4.5c2.2-1.2,3.6-1.2,4.8,1.4c-4.9,3.6-10.4,5.8-16.4,7.2
				c-11.1,2.6-22,0.9-32.8-2c-7.1-1.9-7.1-1.9-7.1-9.2c0-18.5,0-37,0-55.5C183.8,61.6,183.8,60.5,183.8,59.1z"/>
		</g>
	</g>
	<g>
		<path class="st2" d="M140.3,167.4c0.3-0.3,0.4-0.5,0.5-0.7c2.4-5.4,4.8-10.7,7.3-16.1c0.2-0.5,0.3-1.3,1-1.3
			c0.8,0,0.9,0.7,1.1,1.3c2.3,5.3,4.6,10.7,6.8,16c0.1,0.2,0.3,0.5,0.5,0.9c0.4-1.6,0.8-3,1.2-4.4c0.5-1.9,1.1-3.8,1.6-5.8
			c0.5-1.9,1-3.7,1.5-5.6c0.5-1.9,1.1-3.8,1.6-5.8c0.2-0.7,0.4-1.3,0.5-2c0.2-0.9,0.5-1.2,1.4-1.1c0.8,0,1,0.4,0.8,1.2
			c-0.5,1.9-1,3.9-1.6,5.8c-0.5,1.9-1.1,3.8-1.6,5.7c-0.5,1.8-1,3.7-1.5,5.5c-0.5,2-1.1,3.9-1.6,5.9c-0.4,1.4-0.8,2.8-1.1,4.2
			c-0.1,0.6-0.3,1.1-0.9,1c-0.4-0.1-0.9-0.4-1.1-0.8c-0.9-1.9-1.7-3.9-2.5-5.9c-1.7-3.9-3.3-7.8-5.1-11.8c-0.2,0.3-0.4,0.4-0.5,0.6
			c-2.5,5.6-5.1,11.2-7.6,16.9c-0.2,0.5-0.5,1.1-1.2,1c-0.7-0.1-0.7-0.6-0.9-1.2c-0.5-2-1.1-4-1.6-6c-0.5-2-1-4-1.5-6
			c-0.5-2-1.1-4-1.6-6c-0.4-1.4-0.7-2.8-1.1-4.2c-0.4-1.6-0.7-3.2-1.2-4.7c-0.1-0.5-0.2-0.9,0.4-1.1c0.8-0.2,1.5,0,1.6,0.7
			c0.6,2.4,1.2,4.8,1.8,7.2c0.5,2,1.1,4,1.6,5.9c0.5,2,1,4,1.5,6C139.4,164.1,139.8,165.6,140.3,167.4z"/>
		<path class="st2" d="M123.8,167.6c0-0.4,0-0.7,0-1.1c0-7.5,0-15,0-22.4c0-0.6,0-1.1,0.7-1.2c1-0.2,1.3,0.1,1.3,1.1c0,9,0,18,0,27
			c0,0.5,0.1,1.1-0.5,1.1c-0.5,0-1.1-0.1-1.4-0.5c-1.1-1.3-2.1-2.7-3.2-4.1c-4.8-6.3-9.7-12.6-14.5-18.9c-0.4-0.5-0.8-1.1-1.3-1.6
			c-0.1,0-0.2,0-0.2,0c0,0.3-0.1,0.7-0.1,1c0,7.6,0,15.2,0,22.8c0,0.7-0.1,1.2-1,1.2c-0.8,0-1.1-0.2-1.1-1c0-9.1,0-18.2,0-27.3
			c0-0.3,0.3-0.9,0.4-0.9c0.5,0,1.3,0,1.5,0.4c1.1,1.3,2.2,2.7,3.2,4.1c5.1,6.6,10.2,13.3,15.3,19.9c0.1,0.2,0.3,0.3,0.4,0.5
			C123.6,167.7,123.7,167.6,123.8,167.6z"/>
		<path class="st2" d="M40.3,157.4c0-4.4,0-8.7,0-13.1c0-1.3,0.1-1.4,1.5-1.4c2.7,0,5.4-0.1,8.1,0c3.8,0.2,7.4,1.3,10.2,4.1
			c1.9,2,3.1,4.3,3.4,7.1c0.2,1.6,0.4,3.2,0.3,4.8c-0.4,5.9-3.5,11.2-10.7,12.7c-1.3,0.3-2.6,0.4-3.9,0.5c-2.5,0.1-5,0-7.4,0
			c-1.1,0-1.3-0.3-1.3-1.3C40.3,166.3,40.3,161.8,40.3,157.4z M42.5,157.4c0,3.8,0,7.6,0,11.5c0,1.1,0.2,1.3,1.3,1.3
			c1.8,0,3.6,0.1,5.5,0c1.6-0.1,3.3-0.3,4.8-0.9c5.7-1.9,7.2-6.2,7.6-10.8c0.1-1.3-0.2-2.6-0.3-3.9c-0.2-1.9-0.9-3.6-1.9-5.2
			c-2-2.8-5-4.1-8.3-4.4c-2.4-0.3-4.8-0.2-7.3-0.2c-1.3,0-1.5,0.1-1.5,1.5C42.5,150,42.5,153.7,42.5,157.4z"/>
		<path class="st2" d="M205.4,157.4c0-4.4,0-8.8,0-13.2c0-1.3,0.2-1.5,1.5-1.5c3,0,6.1,0,9.1,0.2c4.3,0.3,8.8,4,9.9,8.1
			c1.1,3.9-0.4,8.1-4,10.8c-0.7,0.5-1.4,0.9-2.1,1.3c-0.8,0.5-0.9,0.8-0.4,1.6c1.1,1.8,2.3,3.6,3.4,5.4c0.1,0.1,0.2,0.3,0.3,0.4
			c0.2,0.4,0.8,0.9,0.1,1.4c-0.5,0.3-1.5,0.1-1.8-0.4c-1.2-1.9-2.4-3.7-3.5-5.6c-0.7-1.3-1.5-1.8-3.1-1.7c-1.9,0.2-3.7,0.1-5.6,0.1
			c-1.3,0-1.4,0.1-1.4,1.4c0,1.7,0,3.3,0,5c0,1-0.3,1.3-1.2,1.3c-0.8,0-1-0.3-1-1.3C205.4,166.3,205.4,161.8,205.4,157.4z
			 M207.6,153.4c0,2.6,0,5.3,0,7.9c0,1,0.2,1.2,1.2,1.2c1.8,0,3.6,0,5.5,0c2.7-0.1,5-1,7-2.7c3.2-2.7,3.7-7.7,1.4-10.9
			c-1.9-2.7-4.6-4-7.8-4.2c-2.1-0.2-4.2,0-6.3-0.1c-0.8,0-1,0.2-1,1C207.6,148.2,207.6,150.8,207.6,153.4z"/>
		<path class="st2" d="M172.2,157.5c0-5.3,2.1-9.6,6.4-12.8c5.4-4,12.8-3.1,17.3,2c2.1,2.4,3.4,5.2,3.9,8.4
			c0.9,5.9-0.9,10.8-5.4,14.7c-5,4.3-12.4,4-17.2-0.6c-2.1-2-3.6-4.4-4.4-7.3C172.4,160.5,172.4,159,172.2,157.5z M174.3,159
			c-0.1,2.2,1.4,5.6,3.3,7.8c3.6,4.3,9.5,5.5,14,2.6c5.5-3.5,7.1-9.6,6-15.2c-0.6-3.1-2.3-5.6-4.7-7.7c-3.3-2.7-8.2-3.2-11.8-1.1
			C176.5,148.2,174.4,152.3,174.3,159z"/>
		<path class="st2" d="M257.6,157.4c0-4.5,0-8.9,0-13.4c0-0.7,0.2-1.2,1-1.2c0.9,0,1.1,0.1,1.1,1.1c0,4.3,0,8.6,0,12.9
			c0,1.5,0.2,1.7,1.6,1.7c5.5,0,10.9,0,16.4,0c1.3,0,1.4-0.1,1.4-1.4c0-4.3,0-8.6,0-12.9c0-1,0.3-1.2,1.1-1.2c0.7,0,1,0.3,1,1
			c0,0.7,0,1.4,0,2.1c0,8.3,0,16.6,0,24.8c0,1.1-0.3,1.4-1.2,1.3c-0.7,0-1-0.4-1-1.1c0-3.1,0-6.3,0-9.4c0-1.1-0.2-1.2-1.3-1.2
			c-5.6,0-11.1,0-16.7,0c-1.1,0-1.4,0.3-1.4,1.4c0,3,0,6.1,0,9.1c0,0.7-0.1,1.2-0.9,1.2c-0.8,0-1.2-0.3-1.2-1.2
			C257.6,166.3,257.6,161.8,257.6,157.4z"/>
		<path class="st2" d="M94,153.1c0,2.6-0.1,5.2,0,7.8c0.1,5.1-3.6,9.2-7.4,10.6c-6.1,2.3-12.5,0.1-15.6-5.8
			c-0.8-1.5-1.2-3.1-1.2-4.7c-0.1-5.7,0-11.3,0-17c0-1,0.8-1.5,1.7-1c0.2,0.1,0.3,0.3,0.3,0.5c0.1,0.3,0,0.6,0,0.9
			c0,5.3,0,10.6,0.1,15.9c0,2.1,0.4,4.2,1.7,5.9c2.3,3.2,5.4,4.7,9.3,4.3c4-0.4,6.9-2.6,8.3-6.3c0.4-1.1,0.6-2.3,0.7-3.5
			c0.1-5.5,0-11.1,0-16.7c0-0.8,0.2-1.2,1.1-1.1c0.7,0,1,0.3,1,1C94,146.9,94,150,94,153.1C94,153.1,94,153.1,94,153.1z"/>
		<path class="st2" d="M239.9,158.4c0-4.1,0-8.3,0-12.4c0-1.2-0.1-1.3-1.4-1.3c-2.6,0-5.3,0-7.9,0c-0.6,0-1.2,0-1.2-0.9
			c0-0.9,0.5-1,1.2-1c6.9,0,13.9,0,20.8,0c0.6,0,1.1,0,1.2,0.8c0.1,0.8-0.3,1-1,1c-2.4,0-4.8,0-7.2,0c-0.2,0-0.5,0-0.7,0
			c-1.5,0-1.6,0.1-1.6,1.5c0,8.2,0,16.3,0,24.5c0,1.2-0.2,1.5-1.1,1.5c-0.9,0-1.1-0.3-1.2-1.2c0-3.9,0-7.9,0-11.8
			C239.9,158.9,239.9,158.6,239.9,158.4z"/>
	</g>
</g>
</svg>
